/* XPM */
static char *result[] = {
/* columns rows colors chars-per-pixel */
"64 64 221 2 ",
"   c #2E2311",
".  c #322513",
"X  c #352814",
"o  c #3B2C15",
"O  c #3B2D19",
"+  c #3D3017",
"@  c #2B1E38",
"#  c #392A39",
"$  c #3E3130",
"%  c #281F0E",
"&  c #48080E",
"*  c #4D0910",
"=  c #530A12",
"-  c #5B0B13",
";  c #461D12",
":  c #591619",
">  c #640F17",
",  c #63131A",
"<  c #6A131A",
"1  c #661A1D",
"2  c #71191F",
"3  c #442B15",
"4  c #5B231C",
"5  c #443216",
"6  c #493617",
"7  c #44351C",
"8  c #463A1D",
"9  c #4A3A1B",
"0  c #4A371A",
"q  c #523C1A",
"w  c #59361F",
"e  c #61271B",
"r  c #6B1B22",
"t  c #671920",
"y  c #731E23",
"u  c #4E3B21",
"i  c #453722",
"p  c #573C22",
"a  c #463537",
"s  c #6F2124",
"d  c #732124",
"f  c #792024",
"g  c #7E2229",
"h  c #663927",
"j  c #53431D",
"k  c #59471E",
"l  c #4D441F",
"z  c #64451F",
"x  c #544325",
"c  c #5B4625",
"v  c #554A22",
"b  c #5B4C22",
"n  c #55442B",
"m  c #5B492B",
"M  c #5E5123",
"N  c #584837",
"B  c #564C2D",
"V  c #624C2E",
"C  c #644B25",
"Z  c #625325",
"A  c #6A5B27",
"S  c #6C5C2A",
"D  c #695629",
"F  c #745B29",
"G  c #735328",
"H  c #645434",
"J  c #695839",
"K  c #755334",
"L  c #74632D",
"P  c #7A642E",
"I  c #7B682F",
"U  c #766A2E",
"Y  c #6E6236",
"T  c #746332",
"R  c #766B33",
"E  c #7A6B34",
"W  c #776E39",
"Q  c #7B6A3E",
"!  c #77653A",
"~  c #7C7135",
"^  c #7D743B",
"/  c #6A602C",
"(  c #2C1B4D",
")  c #2E1D52",
"_  c #341E56",
"`  c #33214D",
"'  c #39244D",
"]  c #3D2A4C",
"[  c #3B2847",
"{  c #342154",
"}  c #3B2555",
"|  c #3C2952",
" . c #372258",
".. c #3B265A",
"X. c #3E2A5C",
"o. c #3E2A61",
"O. c #422E46",
"+. c #422E4C",
"@. c #4D3A44",
"#. c #45314B",
"$. c #4A3547",
"%. c #533D48",
"&. c #422C5D",
"*. c #432D55",
"=. c #483356",
"-. c #523D54",
";. c #432C62",
":. c #463163",
">. c #4B3364",
",. c #5A4747",
"<. c #5B4656",
"1. c #604D45",
"2. c #604A4B",
"3. c #6C5843",
"4. c #725E43",
"5. c #6B5759",
"6. c #634F54",
"7. c #756343",
"8. c #7B6C43",
"9. c #786844",
"0. c #7F7442",
"q. c #5D4760",
"w. c #8B2B32",
"e. c #8C2D34",
"r. c #856928",
"t. c #8D7429",
"y. c #836C32",
"u. c #886732",
"i. c #837235",
"p. c #8B7335",
"a. c #82753C",
"s. c #857A3D",
"d. c #8B7B3C",
"f. c #937C34",
"g. c #947C3A",
"h. c #92763A",
"j. c #92792E",
"k. c #993D42",
"l. c #A6474D",
"z. c #816F46",
"x. c #837443",
"c. c #857B43",
"v. c #8A7C43",
"b. c #8D7C4A",
"n. c #87774A",
"m. c #937B46",
"M. c #867554",
"N. c #974948",
"B. c #97813C",
"V. c #99833D",
"C. c #968037",
"Z. c #8F803C",
"A. c #8D8244",
"S. c #8F8449",
"D. c #878042",
"F. c #928445",
"G. c #9A8542",
"H. c #958A46",
"J. c #9D8B45",
"K. c #92854A",
"L. c #958A4B",
"P. c #9B8D4B",
"I. c #9D914D",
"U. c #97914D",
"Y. c #9A8D52",
"T. c #968853",
"R. c #9D9352",
"E. c #9F945B",
"W. c #8E8050",
"Q. c #A08E46",
"!. c #A28E4B",
"~. c #A3944C",
"^. c #A5984D",
"/. c #A99A4E",
"(. c #A8954E",
"). c #A28E56",
"_. c #A49652",
"`. c #A99753",
"'. c #A59954",
"]. c #AB9B53",
"[. c #A59C5A",
"{. c #AB9E5A",
"}. c #A6955A",
"|. c #B19F58",
" X c #ADA15C",
".X c #AFA156",
"XX c #B2A25B",
"oX c #B2A256",
"OX c #9F9A64",
"+X c #A89863",
"@X c #AEA361",
"#X c #AEA66B",
"$X c #B3A662",
"%X c #B5A964",
"&X c #B8AB66",
"*X c #B4A66A",
"=X c #B6AA6B",
"-X c #B9AD6B",
";X c #BBB16D",
":X c #B8AD72",
">X c #BDB373",
",X c #BEB875",
"<X c #BEB479",
"1X c #BEBA7B",
"2X c #AFAD7B",
"3X c #C1BB7C",
"4X c #C1B87A",
"5X c #C3C07E",
"6X c #BDB784",
"7X c #C4BC82",
"8X c #C4BA86",
"9X c #C6C285",
"0X c #C9C48C",
"qX c #CAC88D",
"wX c #C7C289",
"eX c #CCC691",
"rX c #CDCB93",
"tX c #D2CE9A",
"yX c #D1C897",
"uX c #D0D099",
"iX c None",
/* pixels */
"iXiXiXiXiXiXiXiXiXiXiXiXiXiXiXiXiXiXiXiXiXiXiXiXiXiXiXiXiXiXiXiXiXiXiXiXiXiXiXiXiXiXiXiXiXiXiXiXiXiXiXiXiXiXiXiXiXiXiXiXiXiXiXiX",
"iXiXiXiXiXiXiXiXiXiXiXiXiXiXiXiXiXiXiXiXiXiXiXiXiXiXiXiXiXiXiXiXiXiXiXiXiXiXiXiXiXiXiXiXiXiXiXiXiXiXiXiXiXiXiXiXiXiXiXiXiXiXiXiX",
"iXiXiX Xd.iXiXiXiXiXiXiXiXiXiXiXiXiXiXiXiXiXiXiXiXiXiXiXiXiXiXiXiXiXiXiXiXiXiXiXiXiXiXiXiXiXiXiXiXiXiXiXiXiXiXiXiXiXiXiXiXiXiXiX",
"iXiXiX[.L iXiXiXiXiXiXiXiXiXiXiXiXiXiXiXiXiXiXiXiXiXiXiXiXiXiXiXiXiXiXiXiXiXiXiXiXiXiXiXiXiXiXiXiXiXiXiXiXiXiXiXiXiXiXiXiXiXiXiX",
"iXiX7XG.v iXiXiXiXiXiXiXiXiXiXiXiXiXiXiXiXiXiXiXiXiXiXiXXX/.^.Q.V.g.p.iXiXiXiXiXiXiXiXiXiXiXiXiXiXiXiXiXiXiXiXiXiXiXiXiXiXiXiXiX",
"iXiX<Xi.0 iXiXiXiXiXiXiXiXiXiXiXiXiXiXiXiXiXiXtXuX9X,X;XoX].~.J.V.f.y.L b iXiXiXiXiXiXiXiXiXiXiXiXiXiXiXiXiXiXiXiXiXiXiXiXiXiXiX",
"iX$X=XF 7 iXiXiXiXiXiXiXiXiXiXiXiXiXiXiXiX0XyXtXuX9X,X&X|./.^.Q.V.g.p.L b j q iXiXiXiXiXiXiXiXiXiXiXiXiXiXiXiXiXiXiXiXiXiXiXiXiX",
"iX=X[.b u iXiXiXiXiXiXiXiXiXiXiXiXiXiXiX7X0XyXuXrX5X;XXX].(.Q.V.g.h.y.L C j q 6 o X iXiXiXiXiXiXiXiXiXiXiXiXiXiXiXiXiXiXiX!.iXiX",
"f.-X!.v x iXiXiXiXiXiXiXiXiXiXiXiXiXiX=X7X0XrX0X3X-XXX/./.^.~.!.Q.p.r.S M j q 6 o X X iXiXiXiXiXiXiXiXiXiXiXiXiXiXiXiXiXiX'.P iX",
"g.-XP.b x iXiXiXiXiXiXiXiXiXiXiXiXiX{.=X0XtX9X3X;XXX].'.{. X{. X|.`.F.E Z b k 9 + X X iXiXiXiXiXiXiXiXiXiXiXiXiXiXiXiXiXiX{.A iX",
"f.;X!.Z u V iXiXiXiXiXiXiXiXiXiXiX~.{.4XtXeX>XXX].J.d.E ~ c.D.U.U.Y.R.Y.c.S M l 8 O X o iXiXiXiXiXiXiXiXiXiXiXiXiXiXiXiX7X{.C iX",
"g.;X~.A i c iXiXiXiXiXiXiXiXiXiXG.~.<XyX0X-X$X XI.a.U E i.R R D.c.R R T ~ d.a./ v 8 O o 7 iXiXiXiXiXiXiXiXiXiXiXiXiXiXiX4X{.b iX",
"B.;X`.F i u iXiXiXiXiXiXiXiXiXf.J.=XeX7X[.L.$X XK.^ F.G.i.A U L.s./ ~ d.I I F.~.L.8.i O + u iXiXiXiXiXiXiXiXiXiXiXiXiXiX>X{.M i ",
"G.<X`.U 8 8 u iXiXiXiXiXiXiXj.g.@X9X<XR.^ K.].K.S.[..XA.R i.B.H.F.L A d.H.~ a.[.%X%X0.+ i u iXiXiXiXiXiXiXiXiXiXiXiXiXf.>X{.Z u ",
"V.4X].E 9 + O o iXiXiXiXiXiXf.].1X;X'.Z.^ I.v.c._. X.XI.d.T J H E d.a.v.'._.A.R.@XR.R.J i u c iXiXiXiXiXiXiXiXiXiXiXiX~.3X_.b n ",
"J.3X{.p.v 8 8 7 6 iXiXiXiXj.(.*X$X'._.d.R ^ a.A.Q 3.,.,.$.` ( ( [ N Q P.oX XL.c.'.L.Z.L.n i c V iXiXiXiXiXiXiXiXiXiXh.*X4Xd.u c ",
"J.9X%XJ.P b k j j j q iXiXJ..X XA.c.R.P.c.A.v.,.` ( ( ( ` _ ( ( ( ` ' %.4.m.P.x.F.I.~ H.x.u p V iXiXiXiXiXiXiXiXiXg.~.3X{.P 9 c ",
"B.4X9XXXG.E M M M M j 6 j U. XS.^ ^ c.[.{.b.%.` _ &....._ &.} { ..{ ( ( ( O.J G.^ ^ R K.`.T u V m iXiXiXiXiXiXiXiX~.>X4X!.D 8 n ",
"iX{.eX,X{.G.I Z Z M k l A `.].R.[.L.0.}.z.O.} ..:.:.;.:.;.;.;.;.;.o.;.&. .( +.4.H.a.c.R.'.P.H m c iXiXiXiXiXiXiX`.-X0X%Xh.b 7 iX",
"iXiX4XeX&X].V.i.A Z v j E XX%X@XU.c.L.0.O._ :.;.:.&.=.-.<.2.,.<.=.&.;.;.:.&.} $.v.[.].L.^ v.A.m m iXiXiXiXiX0X7X7XeX8X`.y.9 i iX",
"iXiX}.eX5XXX^.B.y.Z b v F.-X@XS.0.K.9.*. .;.>.>.6.M.b.c.a.a.s.d.z.7.<.*.:.:.&.} ,.L.`.c.c.^ A.c.N iXiXiXqXqXqXqXqX0X;XJ.S 5 i iX",
"iXiXiX<XqX&X/.J.p.L M b H. XD.W K.c.[  .;.>.q.M.L.v.R Z C V m Z D E A.M.q.>.;.;.( 3.I.^ I.E.S.R.J 6XuX9X,X,X>X;X;X%X].B.b o i iX",
"iXiXiX).9X4XoX~.V.i.A A U.A.R Z.~.7.&.>.>.<.T.d.A b x p e.N.l.l.K v S v.T.5.>.>. .+.n.S.D.+X$X[.J 2X9X,X&XXXXXoX/.Q.d.F 0 O i iX",
"iXiXiXiX=X9X&X/.Q.g.F U J.^ Z.~.P.,.&.;.q.b.y.A Z v w y w.l.l.l.k.h k M E Y.5.>.;. .$.v.D.D.@X%X! OX,X%X.X/./.~.g.P b 5 o O iXiX",
"iXiXiXiXiX7X>XXX~.B.P h.K.^ I.L.v.=.X.-.n.s.i.P Z p y y w.w.e.e.w.y u M Z U K.<.>.;.} a.L.Q S.@X9.R.&X]./.Q.B.y.A j + X X iXiXiX",
"iXiXiXiXiX+X>X%X(.h.u.J.c.^ D.c.9...-.b.F.a.Y T b t y y f w.w.w.w.r : c / L a.M.-.>.&.8.~.a.~ I.0.}.oX/.Q.B.i.A j 5 X . iXiXiXiX",
"iXiXiXiXiXiXiX+X!.h.h.`.S.~ W D.,.] 8.L.c.B i R p 2 f f d f 2 w.y t : p T s.a.b.6.&...Y ^.H.~ D.0.T.].~.V.f.L k 5 o   iXiXiXiXiX",
"iXiXiXiXiXiXiXiXm.m.B.XXR.d.L.v.[ 4.J.~.! @ N ! 4 < d f f f f g y t : p T m i.v.M.=.&.! I.I.Z.s.0.F./.J.g.y.Z 6 o % iXiXiXiXiXiX",
"iXiXiXiXiXiXiXiXiXiXm.oX~.F.~.x.# Y ~.`.H ( 9.T 1 2 y f f f f d t , : w E $ n d.L.5.} 4.K.D.K.^ x.x.~.g.y.Z q 3 . iXiXiXiXiXiXiX",
"iXiXiXiXiXiXiXiXiXiXiX_.c.W ^ x.$.N P.|.J +.z.D , , 2 f f f d s 1 : : w a.a @ c.J.v.O.,.A.~ ^ ^ v.a.V.u.G q 3 X iXiXiXiXiXiXiXiX",
"iXiXiXiXiXiXiXiXiXiXiX!.^ D.s.v.6.@.x.oXL.$.Y D : > 2 2 2 d d 1 : - = c v.$.$ F.^.H.,.N K.s.W K.T.P u.G q 6 o iXiXiXiXiXiXiXiXiX",
"iXiXiXiXiXiXiXiXiXiXiX!.v.D.L.H.,.&.N `.|.9.J D 4 < < < < y 2 1 : = * C x.#.,.~.].d.a N Q.U.K.].).F G k 6 o iXiXiXiXiXiXiXiXiXiX",
"iXiXiXiXiXiXiXiXiXiXiXV.K.~ U.^.3.;.#.8.`.}.P.E e , > < < t , - - * ; S J @.S.oX~.H #.Q F.a.c.{.T.G C iXiXiXiXiXiXiXiXiXiXiXiXiX",
"iXiXiXiXiXiXiXiXiXiXiXG.'.s.~ I.7...X.a v.|.].K.h , > > > - - = & & w a.! b..X~.J =.6.v.^ ^ ^ R.! iXiXiXiXiXiXiXiXiXiXiXiXiXiXiX",
"iXiXiXiXiXiXiXiXiXiXiXiXXX X0.A.x.} ;.+.N Y.;X-Xv.e > > - - * * & ; ! P.`.].P.J #.&.8.K.K.F.^ D.iXiXiXiXiXiXiXiXiXiXiXiXiXiXiXiX",
"iXiXiXiXiXiXiXiXiXiXiXiX'.%X[.c.v.-.&.&.' N Y.4X&X! : = = * * * 3 ! {.$X$XY.J #.&.-.F.^.H.^ A.! iXiXiXiXiXiXiXiXiXiXiXiXiXiXiXiX",
"iXiXiXiXiXiXiXiXiXiXiXiX~.`.[.R.A.n.#.:.&.] n c.*X-Xm.h 4 : = h b.&X4X$Xn.N ' &. .3.I.F.~ s.v.iXiXiXiXiXiXiXiXiXiXiXiXiXiXiXiXiX",
"iXiXiXiXiXiXiXiXiXiXiXiX`.I.D.L.0.P.8.*...&.] a H b.#X*X#X+XE.=X-X@XK.H a ' &.;.| x.K.~ s.[.0.iXiXiXiXiXiXiXiXiXiXiXiXiXiXiXiXiX",
"iXiXiXiXiXiXiXiXiXiXiXiXiX'.F.W ^ }.{.3.| ;.>.=.O.a N ! b.T.W.0.J m a O...>.X.=.9.S.c.U.@XE.iXiXiXiXiXiXiXiXiXiXiXiXiXiXiXiXiXiX",
"iXiXiXiXiXiXiXiXiXiXiXiXiXiX}.P.R.R.L.L.1.....;.&...' [ # a # a O.*.&.;.X.X.,.x.S.D.E.@X@X0.iXiXiXiXiXiXiXiXiXiXiXiXiXiXiXiXiXiX",
"iXiXiXiXiXiXiXiXiXiXiXiXiXiXiX].^.s.E ^ v.$.{ } ;.;.X.X.{ X.X.o.;.;.:.&.| 1.K._.c.L.R.S.L.iXiXiXiXiXiXiXiXiXiXiXiXiXiXiXiXiXiXiX",
"iXiXiXiXiXiXiXiXiXiXiXiXiXiXiXiX_.s.s.L.s.A.9.@.' | ) X. .X...;.;...) ] 7.L.}._.D.W ^ S.n.iXiXiXiXiXiXiXiXiXiXiXiXiXiXiXiXiXiXiX",
"iXiXiXiXiXiXiXiXiXiXiXiXiXiXiXiXiXR.s.R.K.F..X_.c.,.[  ._ { ` ] [ @.,.8.v.~ ^ K._.P.S.iXiXiXiXiXiXiXiXiXiXiXiXiXiXiXiXiXiXiXiXiX",
"iXiXiXiXiXiXiXiXiXiXiXiXiXiXiXiXiX}.}. X XS.L.I.i.s.s.J ,.J ! v.I._.I.d.v.A.R F.~.A.iXiXiXiXiXiXiXiXiXiXiXiXiXiXiXiXiXiXiXiXiXiX",
"iXiXiXiXiXiXiXiXiXiXiXiXiXiXiXiXiXiX*X$X XA.E d.i.A Z.R.U.d.U s.].[.K.K.'.Z.s.L.a.iXiXiXiXiXiXiXiXiXiXiXiXiXiXiXiXiXiXiXiXiXiXiX",
"iXiXiXiXiXiXiXiXiXiXiXiXiXiXiXiXiXiXiXiX^.H.s.E E R ^  XI.L U Z.d.^ L.$X[.L.K.iXiXiXiXiXiXiXiXiXiXiXiXiXiXiXiXiXiXiXiXiXiXiXiXiX",
"iXiXiXiXiXiXiXiXiXiXiXiXiXiXiXiXiXiXiXiXiXiXiXR.R.K.U.[.L.s.~ R E d.I. X$XY.iXiXiXiXiXiXiXiXiXiXiXiXiXiXiXiXiXiXiXiXiXiXiXiXiXiX",
"iXiXiXiXiXiXiXiXiXiXiXiXiXiXiXiXiXiXiXiXiXiXiXiX-X=X X'.[.R.Y.Y.F.G.iXiXiXiXiXiXiXiXiXiXiXiXiXiXiXiXiXiXiXiXiXiXiXiXiXiXiXiXiXiX",
"iXiXiXiXiXiXiXiXiXiXiXiXiXiXiXiXiXiXiXiXiXiXiXt.'.$X{.B.T S H iXiXiXiXiXiXiXiXiXiXiXiXiXiXiXiXiXiXiXiXiXiXiXiXiXiXiXiXiXiXiXiXiX",
"iXiXiXiXiXiXiXiXiXiXiXiXiXiXiXiXiXiXiXiXiXiXiX].{.-X^.h.U C K iXiXiXiXiXiXiXiXiXiXiXiXiXiXiXiXiXiXiXiXiXiXiXiXiXiXiXiXiXiXiXiXiX",
"iXiXiXiXiXiXiXiXiXiXiXiXiXiXiXiXiXiXiXiXiXiXiX=X4X9X XP 7 9 c iXiXiXiXiXiXiXiXiXiXiXiX@XL iXiXiXiXiXiXiXiXiXiXiXiXiXiXiXiXiXiXiX",
"iXiXiXiXiXiXiXiXiXiXiXiXiXiXiXiXiXiXiXiXiXiXiXB.%X%X~.P j v c iXiXiXiXiXiXiXiXiXiXiXiX}.b iXiXiXiXiXiXiXiXiXiXiXiXiXiXiXiXiXiXiX",
"iXiXiXiXiXiXiXiXiXiXiXiXiXiXiXiXiXiXiXiXiXiXt.B.-X&XJ.y.b c H iXiXiXiXiXiXiXiXiXiXiX-XK.x iXiXiXiXiXiXiXiXiXiXiXiXiXiXiXiXiXiXiX",
"iXiXiXiXiXiXiXiXiXiXiXiXiXiXiXiXiXiXiXiXiXiXt.Q.7X4XJ.C + u 9.6XiXiXiXiXiXiXiXiX8X7X@XS iXiXiXiXiXiXiXiXiXiXiXiXiXiXiXiXiXiXiXiX",
"iXiXiXiXiXiXiXiXiXiXiXiXiXiXiXiXiXiXiXiXiXiXt.`.qX>XG.k o u +X5X4X&XoX].].%X4X0XeX<Xi.u iXiXiXiXiXiXiXiXiXiXiXiXiXiXiXiXiXiXiXiX",
"iXiXiXiXiXiXiXiXiXiXiXiXiXiXiXiXiXiXiXiXiXiXf.XXeX-Xg.j o 8.5X>X$XoX/.(.~./.oX%X&XP.b 7 iXiXiXiXiXiXiXiXiXiXiXiXiXiXiXiXiXiXiXiX",
"iXiXiXiXiXiXiXiXiXiXiXiXiXiXiXiXiXiXiXiXiXiXf.=XeX%Xp.9 u #X4X&X|./.^.Q.V.J.J.G.d.S o iXiXiXiXiXiXiXiXiXiXiXiXiXiXiXiXiXiXiXiXiX",
"iXiXiXiXiXiXiXiXiXiXiXiXiXiXiXiXiXiXiXiXiXt.B.:XqXXXu.5 H ,X&XXX/.(.Q.V.f.y.S k 5 o X iXiXiXiXiXiXiXiXiXiXiXiXiXiXiXiXiXiXiXiXiX",
"iXiXiXiXiXiXiXiXiXiXiXiXiXiXiXiXiXiXiXiXiXt.G.7X0X`.P 5 H ,X&X|./.Q.V.h.P C 6 o   iXiXiXiXiXiXiXiXiXiXiXiXiXiXiXiXiXiXiXiXiXiXiX",
"iXiXiXiXiXiXiXiXiXiXiXiXiXiXiXiXiXiXiXiXiXr.!.7X9X!.A + H ,X$X(.Q.h.u.F k 0 iXiXiXiXiXiXiXiXiXiXiXiXiXiXiXiXiXiXiXiXiXiXiXiXiXiX",
"iXiXiXiXiXiXiXiXiXiXiXiXiXiXiXiXiXiXiXiXiXr.).0X4Xm.G 3 x 0.9.iXiXiXiXiXiXiXiXiXiXiXiXiXiXiXiXiXiXiXiXiXiXiXiXiXiXiXiXiXiXiXiXiX",
"iXiXiXiXiXiXiXiXiXiXiXiXiXiXiXiXiXiXiXiXiXiX).8X=Xm.z 3 X X iXiXiXiXiXiXiXiXiXiXiXiXiXiXiXiXiXiXiXiXiXiXiXiXiXiXiXiXiXiXiXiXiXiX",
"iXiXiXiXiXiXiXiXiXiXiXiXiXiXiXiXiXiXiXiXiXiXiX8X+Xu.z 5 % iXiXiXiXiXiXiXiXiXiXiXiXiXiXiXiXiXiXiXiXiXiXiXiXiXiXiXiXiXiXiXiXiXiXiX",
"iXiXiXiXiXiXiXiXiXiXiXiXiXiXiXiXiXiXiXiXiXiXiXiX}.r.z o iXiXiXiXiXiXiXiXiXiXiXiXiXiXiXiXiXiXiXiXiXiXiXiXiXiXiXiXiXiXiXiXiXiXiXiX"
};
