/* XPM */
static char *result[] = {
/* columns rows colors chars-per-pixel */
"64 64 164 2 ",
"   c #79943F",
".  c #759444",
"X  c #7E9744",
"o  c #7C9B46",
"O  c #7C974A",
"+  c #779849",
"@  c #7D9D4B",
"#  c #7E9E50",
"$  c #7EA14C",
"%  c #809E46",
"&  c #819E4D",
"*  c #829F51",
"=  c #8B9E55",
"-  c #84A34D",
";  c #89A54E",
":  c #85AE4D",
">  c #8AAA4E",
",  c #92AE4E",
"<  c #91B64B",
"1  c #94B94E",
"2  c #86A452",
"3  c #8AA653",
"4  c #86AB51",
"5  c #8CAA54",
"6  c #89A658",
"7  c #8EAC5A",
"8  c #91A556",
"9  c #92AD55",
"0  c #91A65A",
"q  c #93AD5A",
"w  c #99AC5C",
"e  c #8DB253",
"r  c #8EB853",
"t  c #8FB05A",
"y  c #93B455",
"u  c #9AB654",
"i  c #95BB54",
"p  c #9ABD55",
"a  c #95B45A",
"s  c #9AB55C",
"d  c #95BB5A",
"f  c #9BBC5B",
"g  c #A0B75A",
"h  c #A2BD5D",
"j  c #91AF60",
"k  c #9CAE62",
"l  c #95B361",
"z  c #9AB460",
"x  c #97B861",
"c  c #9CBC61",
"v  c #A1B661",
"b  c #A2BE62",
"n  c #A5B469",
"m  c #ABBE6A",
"M  c #9DC256",
"N  c #9EC957",
"B  c #96C25A",
"V  c #9CC25B",
"C  c #9DC95C",
"Z  c #A1C656",
"A  c #A5CA56",
"S  c #AACD56",
"D  c #A2C55C",
"F  c #A8C65E",
"G  c #A5CA5C",
"H  c #AACD5C",
"J  c #B0CE5E",
"K  c #A6D25D",
"L  c #ACD25D",
"P  c #ABDB5F",
"I  c #B2D45D",
"U  c #B4D95E",
"Y  c #BDDD5E",
"T  c #9EC361",
"R  c #9ECA61",
"E  c #A4C563",
"W  c #AAC564",
"Q  c #A5CB63",
"!  c #AACD64",
"~  c #A4C469",
"^  c #ACC66C",
"/  c #A6CC69",
"(  c #AACD6A",
")  c #B2CD66",
"_  c #B2C36F",
"`  c #B5CD6B",
"'  c #B9CF6E",
"]  c #A5D163",
"[  c #ACD363",
"{  c #AED964",
"}  c #A7D169",
"|  c #ADD36B",
" . c #ADD96A",
".. c #B2D564",
"X. c #B8D363",
"o. c #B4DB64",
"O. c #BADD65",
"+. c #B2D56B",
"@. c #B9D56C",
"#. c #B4DB6B",
"$. c #BBDD6B",
"%. c #ADCD72",
"&. c #B5C377",
"*. c #BBCE75",
"=. c #BBCB78",
"-. c #AFD671",
";. c #B3D571",
":. c #BBD372",
">. c #B5DB72",
",. c #BADD72",
"<. c #B6D67A",
"1. c #B7DC7A",
"2. c #B5E266",
"3. c #BBE266",
"4. c #B6E26A",
"5. c #BCE36B",
"6. c #BDE96C",
"7. c #B5E170",
"8. c #BCE372",
"9. c #BEE876",
"0. c #BBE279",
"q. c #C0DE5E",
"w. c #C1DE64",
"e. c #C1DE6D",
"r. c #C5D677",
"t. c #C2DD74",
"y. c #C7D678",
"u. c #C5DE7A",
"i. c #C9DE7B",
"p. c #C3E364",
"a. c #C9E664",
"s. c #C7E964",
"d. c #CBE966",
"f. c #C2E46C",
"g. c #CAE66A",
"h. c #C3E96D",
"j. c #CBEB6C",
"k. c #D2ED67",
"l. c #D1EE6A",
"z. c #D2F16C",
"x. c #C3E473",
"c. c #C9E673",
"v. c #C4EA72",
"b. c #CBEC72",
"n. c #C2E479",
"m. c #C9E47C",
"M. c #C3EA7A",
"N. c #CDEB7B",
"B. c #D1ED72",
"V. c #D1EE7C",
"C. c #C6F271",
"Z. c #CDF073",
"A. c #C4F17D",
"S. c #CBF279",
"D. c #D2F175",
"F. c #D4F37A",
"G. c #CEE182",
"H. c #C4EB83",
"J. c #D3E383",
"K. c #D6EF84",
"L. c #D9EB87",
"P. c #D9E688",
"I. c #D9E988",
"U. c #D3F181",
/* pixels */
"2 3 ; 5 , > ; - % 2 7 a l y 5 9 w w ; X   X ; - - % % & 2 # * 6 * * 2 6 7 6 & O O = 3 3 5 = - 3 3 3 > > > > , , > : > > i y a y ",
"- 5 3 5 > % X o - 6 l l t 3 ; 8 q q 5 ; ; 5 > 9 , ; 5 9 7 7 6 6 * * 6 q 7 * . . O 2 2 - ; ; & 2 2 - > 4 > e r 5 > - - 5 f f a 9 ",
"2 7 5 5 8 - o % - 6 7 t 3 - 3 q s k w 8 9 > 9 9 9 5 5 5 7 7 j 7 2 2 3 6 3 @ . O # 3 2 6 5 5 3 5 5 4 3 4 y y y > - % % 9 d a 5 > ",
"2 7 5 9 q q 5 2 * - 2 2 ; & 5 w k z w s q 9 9 9 9 q 5 2 6 7 7 7 6 3 2 & & O O * 2 5 7 a q q 7 5 7 a 5 a a 9 3 & % o o > q 3 - 5 ",
"2 7 4 3 5 9 w a 5 3 2 3 5 3 3 3 8 8 w v s a y w q w j * * * 2 6 6 3 6 6 6 2 @ # $ $ 7 a 7 2 # . O t a l z 5 ; ; ; ; & ; 5 5 7 z ",
"4 2 3 5 > 9 a z s a 3 3 2 @ & & 3 w s v g s s s w 5 = O * 6 6 2 6 7 l l 6 @ @ + . . 2 2 $ @ @ + + 2 6 5 a q 8 y s y 8 > 5 3 = 7 ",
"$ $ 4 5 9 9 u b T c q 5 - o X & w s m h h g v v w 0 = & * 7 7 7 7 l l j # @ + + . . $ $ o + @ $ $ @ @ - 5 9 w b b v a 5 5 - @ O ",
"$ 4 d f s y f E ~ ~ c c a 5 2 5 s g h W m W _ _ n n k k 0 0 3 5 q q 7 6 4 # $ $ $ : : : $ $ # 4 : - - > 5 9 u b m E c y f 5 2 - ",
"e d T T f u f / W / E f f d 5 y b h W :.' ` *.=.=.&.&.n w , , w y w y 9 9 5 4 t d d d d d e 4 d t e 4 5 y u f b E ~ E f f a e 4 ",
"T B V V V p f E ~ E E f i d s d E W W ' ` ` ' *.=.=.=.m g w g h b W W W E D f V V d B d d T T T E V f V f f y V F E E i y y y y ",
"/ Q V V T V f a < i W ( ! ( W / E h u u h W W ` ^ m m W m W ) ) ) ' @.t.t.>.#.| Q V B V V f V ~ / ;.| | ( ! V E V y y , y D E / ",
"-. .| Q G / f 5 2 5 ( { +.+.+.! E V u y s h h v b v v ` ` ` ` ..X.@.e.c.c.f.$.+.! V B V M V V D Q >.;.+.+.[ Q V i e y i V E [ ! ",
">.,.7.+.] Q V y 7 y ( @.#.$.+.( F h f h f f s a a q a ' @.' ` ` X.@.f.e.f.e.o...H M V M B p f V E | >.,.7.#.Q p i y f ! ( [ +.+.",
">.,.,. .( [ D a e y H ! [ ! ( W E E W E h b c z a 9 9 b W W ) ..@.e.$.e.f.f.#.$.#...[ Q G V i V E ;.1.8.8.+.[ D M V V ! +.+.| [ ",
"-.#.#.[ Q Q E d a f E H F F ! ! Q E ~ E E b b b s , ; u f D H ! ` @.@.5.$.6.3.3.8.$.+...| M i f T ;.,.,.>.| [ G Q Q f V [ [ ! G ",
"E Q Q E V f f f f f f p p D ! ! E F ! / ^ E b b h u , h F F D D G H [ o.[ L L o.2.5.4.#.#.H i r i E | ( ( G V p B V i i V p p D ",
"y p E M B p B V V f p p F ! +.#.{ | ..G V p M F W F D ) ) [ G G G G [ +.{ { { P 4.6.6.6.5.{ C p p B M p p 1 i r p M B p p B Z H ",
"V M H D D D G G Q Q ! { #.$.2.4.$.5.#.N p p D H @.$.O.@.@.o.[ [ H [ o.4.9.4.4.2.2.6.6.6.9.5...] G B 1 < < 1 M M H ] H ! H ! [ $.",
"H [ ....o.[ { +.#.4.$.5.3.5.3.5.4.3.4.[ #.5.5.O.f.e.e.f.O.I L L H H H G ] { { P P 4.2.2.2.6.2.{ L G G H L L [ { { { ..o.#.#.#.3.",
"H [ o.o.o.o.o.o.3.5.4.4.5.5.5.2.4.2.o.o.3.h.f.p.p.p.f.3.o.L A H L H N C C K K K P 4.6.6.2.6.2.[ H G L [ [ ..o.o...o.2.2.O.5.5.5.",
"H I O.5.3.3.o.2.5.3...o.f.h.3.o.{ { U ..o.3.h.h.g.j.j.f.O.L A H L G Z V C C N K P 4.6.2.2.2.o.] H G H L O.2.O.3.3.2.2.Y o.4.5.v.",
"H I O.3.3.3.2.3.3.o.o.o.3.o.{ L L L L o.2.3.h.j.h.b.b.h.3.L A A Z D D V B T B M K { 2.P P { L H G G L I 3.3.5.6.5.o.o.o...$.3.$.",
"I U 3.3.3.f.5.5.6.O.#.$...L G G H A A o.o.O.3.6.3.p.f.f.o.I L ..H ! Q D B d i d B C ] { {  .o.P L I U Y 5.3.p.v.5.3.o.o.$.5.#.L ",
"q.q.p.3.5.h.x.5.f.f.f.$...H G S [ D g H J J L I S A S o...o.#.$.$.,.| ~ d e 7 e r d R ] +.3.h.3.q.Y q.q.p.3.p.h.v.6.6.6.h.5...L ",
"a.d.g.6.f.x.x.x.6.f.v.8.$.I L ..@...F F S H J J S A S ....{ +.+.#.>.( ~ f l l x c c ~ Q >.8.j.d.d.a.d.a.a.g.h.f.v.v.h.v.v.h.#.[ ",
"k.k.j.h.8.8.9.M.f.h.f.f.5.o.o.$.5.o...I ) S H H S S H o...! [ { +.( ( ( ( %.( ~ b ~ / [ 5.v.j.j.k.k.k.k.l.j.h.$.8.x.v.v.5.5.5.3.",
"a.k.j.h.,.$.$.8.v.h.o.$.$.O.3.5.e.$.e.@.@.L J H [ L ..$.#.+.[ [ ! Q | | <.<.%.~ d f F [ 5.v.Z.j.k.k.d.a.b.h.e...@.5.8.5.o.o.5.#.",
"a.w.w.O...E D ..$.5.o.o.3.6.3.f.f.x.f.x.e.e.$.o.O.O.#.3.#.+.{ +.+.[ E E W / / c i p G [ #.5.Z.B.l.g.w.w.w.e...H G ( 7.$.[ o.5.f.",
"a.w.O.I ) F Z H 5.5.o.3.f.h.h.j.c.c.c.c.c.x.5.O.3.3.O.5.#.....+.#.( D f V V V p p B A ..o.5.b.B.B.g.g.w.f.w.! G D F #.$...o.f.h.",
"c.g.f.e.O.o.) ..$.$.O.f.C.D.D.D.F.V.V.N.c.x.f.3.O.3.3.6.$.....) ! D V D D F D p < M M A G ..O.O.w.c.B.g.c.f.@.[ H ! #.5.#.3.h.b.",
"w.w.e.X.@.o.X.o.$.3.f.h.b.Z.D.D.B.B.N.c.c.x.x.3.o.o.3.5.5.$.@.+.W D W | ( G G M < A G A Z A S H I w.O.w.$.O...H H G #.5.5.5.h.B.",
"J J J S S L o.$.f.h.j.h.h.p.h.f.h.h.f.f.x.x.5.+.o.o.Y 3.$.$.t.>.! ( +.>.{ ] H M p H [ H Z Z F S H H H H I L L H H L #.5.x.v.j.N.",
"..@.@.o.o.4.3.6.h.h.h.h.p.6.3.6.h.h.f.5.@...! H H K H L H H ( | ( +.#. .| | +.{ ! [ ..[ ! D ! [ ....L ....o.3.$.2.3.6.6.6.6.6.h.",
"5.5.5.5.h.v.h.6.C.h.h.h.h.h.6.h.v.b.v.$.A 1 i p M A M M M p B V ^ | -.;.>.8.>.>.7.| [ [ ..#.$.#.@.5.$.5.x.5.9.6.6.h.C.C.6.2.4.6.",
"7.5.5.4.5.v.C.6.6.3.2.6.C.v.v.9.v.v.c.$.H u p M K { K K H G V R | >.0.7.,.,.7.9.9.( V R +.,.x.8.8.8.8.v.8.9.9.5.3.6.6.2.2.P 2.v.",
">.#. .#.4.4.o.{ P A K >.M.H.H.M.x.,.,.x.X.) ) !  .#.4. .#.#.>.1.>.>.-.} } | ,.0.,.Q V B ( { #.7.7.8.7.#.[ #.4.#.o.o.[ N N } 7.A.",
"0.>.| #.5.+. .[ C V D | 0.H.H.H.,.:.,.u.t.@.+.+.#.7.7.4.4.>.1.0.0.0.-.} Q [ ;.8.-.T T T } } ;.7.8.8.7.#.Q  .>.>.#.+.E V V Q  .H.",
"1.>.;.7.,.>.7.#.Q G R E | 0.-.-.%.+.,.u.u.t...) #.5.4.4.4.+.| ;.1.0.7.>.| ( | -./ T / -. .>.0.0.>.;.7.>.;.1.8.>.;.>.! Q T R } 7.",
"/ %.;.0.>.+...+.[ ! [ Q ] } Q } ! ! +.+.@.e.$.@.$.#.#.+.+.| Q ~ / -.;.| [ ! ( / T T / } -.-.1.| / V E } | #.;.( ! +.[ ! | [ Q } ",
"B R / | +.! Q [ #.5.8...G N Q Q W F F ! ..e.t.t.:.` +.$.;.E f h R R ( Q Q ( | / T T T x T R } C d r d B R } [ G F H @.$.,.#.Q Q ",
"B T B B M Q ( { 7.N.M...[ } R d f f f W t.m.t.r.r.:.@.i.<.f d E ( ( } | | +.;./ f d 4 : $ r B B r r B B B B B G H ) e.m.M.8.[ W ",
"B B C B C [ { +.9.M.8.#.+.| Q T d f E +.n.V.m.i.i.y.r.G.:.b s E ^ / } W ! ( } V i d d r r B C B B B B R R C G [ [ ..x.M.x.7.+. .",
"B C R  . .+.{ #.x.b.v.7.#. .| Q E E +.t.N.U.U.L.I.J.P.J.r.^ b V h / / G F D D p i d R } ] R ] C B C R R Q ]  .#.....x.x.9.5.4.#.",
" . .{ { { { [ [ $.7.8.5.+.{ [ Q F ! $.x.N.V.K.K.I.I.P.J.y.:.W ^ ! +.:.$.#...+.@.[ } }  . . .{ { }  . . . . .{ { [ H o.,.9.8.4.+.",
"7.9.7.#.#. .+.{ #.+.Q Q +.#.....+.$.8.@.@.@.$.t.t.i.i.m.u.@.` @.,.t.c.x.x.c.V.N.M.4.{ {  . . . . . . .-.7.7.4.{ { L Q [ ..#.5.#.",
"8.M.9.7.4.#.4.#.#.[ i f +.8.v.6.8.8.$.! Z M ! ..` @.:.@.>.>.,.e.c.t.c.c.c.B.F.F.F.x.{ { {  ...{ ] ] ]  .9.9.5.#.#.+.H D G { 5.9.",
"7.M.M.M.9.5. .{ H R f / $.x.6.9.6.8.#.[ G D Q W ! W W W :.n.M.x.t.e.e.c.B.D.F.F.F.6.o.{ { { [ [ ] G } 7.M.9.5.4.5.4.G B M @.8.v.",
"#.9.M.M.M.7.+.[ D p f | #.$.3.5.#.+.| | ( ( ( [ F h f F ` ,.t.e.e.$.e.g.c.b.D.D.C.v.5.#. .{ K K K C Q #.n.M.8.8.7.#.Q D B ( o.5.",
"[ ,.9.M.8.#.+.[ M V f ! [ I I [ [ ( ! | / / ( ! ! F h F W ! ! ) @.o.$.f.v.b.b.C.v.v.v.8.8.4.{ { [ M B [ 7.8.x.8.7.#.| Q B M G ..",
"M [ #.+.@.{ [ G D V D Q D D G H [ [ ! [ [ ( Q W W W E h F F F F H @.@.O.5.5.5.5.5.5.5.6.5.4.o.{ L N p M ! +.>.#.+.} Q T V p V D ",
"1 p M G D M p i p V D V i i Z H @.[ [ [ [ } G D D F h h F W F S G S G H H K L L L P { o.2.o.{ ] K G p < < M Q H G M d f V M D p ",
"D p V M M M p Z G G Q E D G H @.7.#.4.#.+. .V i p E W ..@...X...X.@.[ [ H { o.2.2.o.o.2.2.5.2.2.{ 2.L M p B D G H G M V D G ! G ",
"L G G H G H L [ ......{ | #.+.#.8.5.3.5.6.2.L A F +.t.@.5.f.f.$.o.....L L L [ { { { 2.{ 3.5.2.6.6.6.o.H G C Z G L L K [ { { { #.",
"L H L L L ..L o.o.#.$.4.3.5.5.f.5.3.3.2.6.5.{ L ..x.b.f.p.f.f.O.I ..L H H G M C G ] { { 2.2.2.2.6.6.{ H G G A L o.o.[ ....o...#.",
"A G I I o.o.3.3.6.3.3.o.o.o.5.v.v.6.2.U o.P L L O.h.b.h.h.f.3.Y I L A H H C M B B C K ] 2.4.2.2.2.4.{ G D H H o.o.o.2.3.2.o.2.4.",
"Z H ..O.Y 3.f.6.5.6.3.o.Y o.@.5.3.o.L L L L L I 3.f.j.j.g.p.O.U I I L { ! G p i i V C G ] { K K K { [ H D H ..O.3.3.5.6.3.2.o.o.",
"H H U U U 3.3.3.3.5.3.3.o.o.o.o.H G A D G Z S I O.O.p.a.U I U U U 2.5.8.+.Q f e e d d B p M B C C H H I J I U Y 3.p.5.3.3.3.2.U ",
"3.O.O.Y q.q.6.3.6.g.5.3.5.f.O...H G H H M p D I I U I I S S o.o.o.o.3.7.,.| E a e t t y d D [ [ ..5.f.p.Y Y 3.3.3.s.h.6.6.h.6.6.",
"v.g.s.s.s.s.3.h.h.b.6.6.h.v.5.o...L L ) A Z G ..I I I S S H o.o.o.....+.+.;.W T l c c c c V ( +.3.v.j.a.p.p.p.q.q.h.h.g.h.h.h.v.",
"b.j.z.k.z.s.g.h.Z.C.v.M.x.f.5.3.o.o.$.$.@...O.o.o.L H L I ..@.#.o...H B / ( | %.%.%.<.<.( E G 5.b.C.j.d.d.g.d.d.s.h.h.C.C.v.v.h.",
"Z.d.d.d.d.a.g.$.5.5.8.v.5.#.3.3.o.5.f.x.$.f.$.O.@.[ H H [ ..o.#.+.{ D V G ( +.1.0.<.( ~ f V [ 8.S.Z.h.j.g.g.a.a.b.g.f.f.v.v.x.3.",
"j.Z.a.a.a.e.w.) ! ( ..#.#.o.o.$.f.v.f.f.h.c.$.@...H G H H L ..o.@...G D D E E | ;.( T d V Q [ ..5.f.p.d.l.g.g.l.c.@.! J [ #.+.[ ",
"j.b.j.B.c.w.I F u y i Z L ..o.h.c.b.c.g.B.V.e...H G G G G H L [ [ { H V V p i i f f p M Q [ ! A A o.O.h.B.B.B.B.g.) g 1 p p M G ",
"$.j.D.B.B.w.X.! f u p D ..O.f.g.D.F.b.N.F.B.h.@.I [ L H H I ....[ ! D V V M 1 i M V p B G G G M Z I O.w.B.B.B.g.O.) Z u u g G [ "
};
