/* XPM */
static char *_2ad835860fa4273eca10d6e1b9ebe4b3rCLxoxcLYHx2lKY[] = {
/* columns rows colors chars-per-pixel */
"64 64 94 2 ",
"   c #D49D00",
".  c #DB9C00",
"X  c #D6A201",
"o  c #DBA400",
"O  c #D5AC04",
"+  c #DDAB01",
"@  c #DDAF08",
"#  c #DEB305",
"$  c #DAB808",
"%  c #E4AD01",
"&  c #E9AE00",
"*  c #E5B302",
"=  c #EBB501",
"-  c #E6BA04",
";  c #ECBB02",
":  c #E0B408",
">  c #E6BB08",
",  c #E8BF08",
"<  c #F2B500",
"1  c #F3BC01",
"2  c #F9BC00",
"3  c #DCC007",
"4  c #E6C105",
"5  c #EDC304",
"6  c #EECA05",
"7  c #EBC609",
"8  c #E6CA09",
"9  c #EDCB0A",
"0  c #F4C402",
"q  c #FAC501",
"w  c #F4CB04",
"e  c #FCCC02",
"r  c #FCCD04",
"t  c #FDCD04",
"y  c #FCCF04",
"u  c #F0C608",
"i  c #F2C908",
"p  c #F1CB09",
"a  c #F5CB08",
"s  c #F2CC09",
"d  c #F6CC08",
"f  c #F7CF08",
"g  c #EBD00C",
"h  c #EED20C",
"j  c #F4D007",
"k  c #F5D206",
"l  c #FED303",
"z  c #FFD503",
"x  c #F9D004",
"c  c #FCD105",
"v  c #FDD304",
"b  c #FBD606",
"n  c #FAD707",
"m  c #FBD907",
"M  c #FFD804",
"N  c #FED806",
"B  c #FFDC07",
"V  c #F1D009",
"C  c #F1D20B",
"Z  c #F4D309",
"A  c #F6D709",
"S  c #F4D70B",
"D  c #F7D70A",
"F  c #FAD208",
"G  c #FED308",
"H  c #FAD508",
"J  c #F7D909",
"K  c #F7DE0B",
"L  c #F3DC0F",
"P  c #F2DD0F",
"I  c #F4DD0D",
"U  c #FBDA0B",
"Y  c #FED908",
"T  c #FDDC09",
"R  c #FDDC0A",
"E  c #F9DD0C",
"W  c #FCDF0D",
"Q  c #EFDC12",
"!  c #FEE206",
"~  c #F6E10A",
"^  c #FAE109",
"/  c #FDE109",
"(  c #FEE30A",
")  c #FBE10C",
"_  c #FAE40E",
"`  c #FFEA0B",
"'  c #FDEB0C",
"]  c #FFF10D",
"[  c #F5E110",
"{  c #F7E713",
"}  c #FBE010",
"|  c #F6E812",
" . c #FBE913",
".. c #FFF315",
/* pixels */
"5 ; = e z y q q = = c N ; % = 0 1 1 1 1 1 = & 0 ^ m 0 0 y y y d w 1 u h g % + w Y Y m b y y s p 4 4 - - - * * 5 5 0 q 1 ; 5 H H ",
"d y l y d 0 1 1 q q e e e q 0 9 p y y = = = ; p ^ J 5 5 l l b N Y U U c c d a U ) j ; 0 b c ; = V P w 1 0 U b y y 0 0 0 e y b b ",
"y l z x d 0 ; 1 e e w w e e w 9 p c y = * = ; w ) J 5 5 l z N N R W R l l F F E _ w = 1 H G = * V [ Z 1 q R R l l 0 0 q y c b b ",
"e y y N / x 1 1 e e l c 0 1 0 e e e e q q d V S K S 0 0 ; ; 0 0 p V p 1 1 q e , * ; 1 1 5 5 5 5 d x d w w e e e e c N u = ; d d ",
"q e e B ` b 1 1 e e c b 1 = 1 y e e e y y S P I I S q q = % = 1 5 6 5 = = 0 q % X * 1 1 5 5 9 9 w e w w w q q q q N / u % - w 6 ",
"e e e w p 5 = = q q e w y x d p w e e y y b U b x y w w 0 0 w y w 5 5 0 0 q q = % ; w w j j d d y e x b d = = c H b b w , 5 0 0 ",
"w e e ; * * % = q q 0 0 m ` J 7 6 y y y y b R c q e w w e e N R d - 5 x j e q 1 = 0 j S K K l l l x b R j o + W / b c d 9 p 0 0 ",
"0 e e ; - = = = 0 0 ; ; w x j Z V 0 0 e e y y y e e e e 5 ; x N x 0 0 p u 1 1 1 ; w b b d d l l 0 ; p b p % % s Z y y 0 - 5 Z Z ",
"< 0 w 0 ; ; ; ; u 7 * % & & 0 ` R % % 0 0 0 1 w J b y e # O p b z z e ; ; = & ; 5 d / b 1 1 y l * o * 5 ; = = - - q e 1 o > { { ",
"0 0 w 0 0 ; ; ; ; ; ; = = = 0 / b = = w w 0 1 w U b y e - - 0 e l z e ; ; = = ; 5 w b x 1 0 y l ; + ; p 0 ; 1 ; ; q y 0 = 5 I I ",
"R q q e y 0 > > % % w d q 2 q d w q e N R w 5 w N b e e l z 0 = 0 b y 1 1 > > ; 1 1 ; ; 6 w z z w 5 d b b N z q q j J U N b 0 0 ",
"Y q q e y 0 , - & & 0 d q 2 q y e e e b b w 0 w b c e e l l 0 ; 0 b x 0 0 ; > 1 1 1 ; 5 w w c z u ; w b b N N e q j S U N b e e ",
"w w p x N x 0 0 q q 1 1 1 q e b c y y = * 0 y q 1 1 y y l l x x b N B ! ! e e q 0 q e y ! B y y * o = 0 y / / J S b c y p d N N ",
"w p p x N x 0 0 q q 1 1 1 q e b c y y = % 0 y q 1 1 y y l l x b b N B ! / y y q 0 q e l ! B y y % o = 0 d / / S S b c y p d B B ",
"l 5 > 9 S j 0 0 & & q q y c c b y = = 1 1 0 q 0 , 5 e e b N c y e p d N N q 0 0 0 w x d 9 9 ; ; = * ; p p e e 0 1 d F e 1 q N N ",
"l , > 9 S j 0 0 % % q q y b b b y * * 1 0 0 q 0 , 5 e e b N c y e u w N b 0 0 0 0 w j d 7 7 ; = = = 5 p p q q 1 1 w F 0 1 q N N ",
"l y y x m p * - ; ; y c l l l y e p p = = 1 0 0 y e q q c b 0 = 0 x w ; ; u p e y e 0 0 0 0 e e e 0 e e e G G e e e y e y l B B ",
"z z z b N u + % ; ; c b l l y e e S S * % 1 0 e z l q q c z 1 & 0 z e % % 6 6 e l e 1 1 q q l l l y y e y Y Y y y e e y z N ! ! ",
"l 0 0 x N 0 o + 4 5 0 q e w e e e b b 5 5 5 ; 0 y y e e 0 1 1 1 q b e % % 0 w w w 0 0 1 ; 1 0 q q q e e e p p b N b x b b b j j ",
"y 1 ; e N 0 X + 5 5 1 1 0 5 0 q e b b Z Z 5 - 0 e e b x * % 1 q y b e % % 0 q 0 5 5 5 ; * * 1 1 1 0 q y e > , / / R R U N b 6 6 ",
"0 1 ; 0 0 ; - = ; ; 0 q 0 0 0 0 0 l l j j 5 4 p c c w w 1 ; 1 1 q b e = = q e 0 0 0 0 0 1 1 0 0 0 0 w e d V V N N S V x l x j j ",
"% 1 1 * + ; b y = = e y q q 5 3 4 y y e e w 6 S / U , , l z 1 & 1 b x q q y y 0 0 0 q e y c z z j h w p S ' ' x y 5 4 0 e y B B ",
"% ; 1 = * ; c e = = y l e q 0 8 9 y y 0 0 d j b Y b 5 5 x z 1 = 0 x e q q e e w w 0 q q e e y y d w p p j ` / x y 6 4 p e e m m ",
"= = = 5 p w e e 0 0 b N e 2 c ` / U b ; * j / b q q q q j V w w 0 0 0 ; ; ; 1 j R c q q = = 1 1 1 0 1 1 0 Z Z w w V h h 6 6 5 5 ",
"= = ; 0 p e e e 0 0 b N e q c / / b b ; = d B c q q q q j V d w 0 q 0 ; ; 1 1 d U x q q 1 1 1 1 0 0 0 1 0 S S w w s V 9 6 6 6 6 ",
"q 0 0 0 0 0 1 1 e e q q e y y x x l l 0 0 ; * ; 0 p H b j j e y c b y = ; w d 0 0 0 6 w q q c c y e e q e N b 0 ; 0 0 1 1 0 B B ",
"q 0 0 0 0 1 1 1 y y q 1 e y y x x l l 0 0 - * - 0 p H H j j e y c b y ; ; w d 0 1 0 6 w q q c c e y e q e N b 0 1 0 0 1 1 0 B B ",
"q x b w 0 0 ; 0 c c y c y w e e y N N p p ; = ; 1 0 ! ! x e e q e Z V h h w d 1 ; = : , x x 0 1 e y y y y e e = = y N y q q ; ; ",
"q b m d 0 0 ; 0 b b b b y p e e y B N w p ; = ; 1 0 ! ! x e e q w V V Q Q w w ; = * @ > c x 1 1 q y y l y q q = & y R c q q = = ",
"l y e b R x q 0 ; ; ; - 5 u d N x 5 5 5 ; 0 q 0 p p d w ; ; 1 1 1 ; ; V V x c y e d d j N N e e e e l B c 1 1 q q b R N c w = ; ",
"b e q Y  .R e q * % + + , u j R b - - ; ; q y y s s 0 0 * % = < = & = s s b b b b N B B B R c e e e b / b 1 1 e e N R Y U j ; ; ",
"w q q c R x 0 1 * * * * ; 0 0 w 0 - - % % 0 z x 9 p 0 0 ; ; 0 0 1 = ; x x c l y y l b N / / x x e q y b e 1 1 q e c b c c e 1 1 ",
"; 0 0 y b e = = * * = = ; ; ; ; ; ; = . . 0 B x 5 u e e w w d d u ; 0 z z y y e e y b N / / b b e q e e q = ; q q y l y y e 1 1 ",
"1 1 0 e y e 0 0 * * = < 1 5 1 1 1 ; ; * : j / S 5 5 1 1 d d y F d u w N b e e y l w ; 0 B B y w q q e e q 1 1 0 0 l z e q q 1 1 ",
"1 1 1 0 0 y B b % % 1 1 0 u 0 1 1 u p S P ) ` S ; ; % * j S b c b R R B B 6 4 j N ;   % c c 1 1 0 q e d d 0 0 0 0 b B w = 1 0 0 ",
"0 0 q q e y B b = = 1 1 u p 0 1 1 w w S V R / S 5 ; * > w d x c b U U B N p 5 x z 5 % = c l 1 1 1 0 0 w w e e 0 0 x N e 1 0 0 0 ",
"w e q e y c m b y e = * w b 0 = 1 l l 0 0 y b l e e V V ; ; 0 w x N N Y Y y y y e l B b e e q q ; * = = 1 R Y b b e e l B N y y ",
"w q q e y c b b y e = * 0 b w = 1 z z e 0 e y e e e V s 4 ; w e x b b b b l y y e l N b e e q q ; ; = = 1 N N b z e e c N b y y ",
"b 5 ; w z y w y / / 5 ; 5 5 h { { ' ' / / ; o - d d p p Z Z c b x d w = = H Y y q e b y q q d d b N b b x e e N B b S w 1 0 b b ",
"b 5 ; w z e w y / / 0 ; 5 4 h { | ' ' / / ; o - d d p p Z S b b x d u = = b Y y q y c y q q d j N B N b x q e N B b S w 1 0 b b ",
"p 0 0 0 q q q e Z Z u 5 u p d N N x x 5 5 w j w 1 ; % % x N N B y 1 1 5 5 = = 1 1 1 1 1 ; ; u p 0 q 0 ; ; = = e x w 0 e x l l l ",
"u 0 0 0 0 q q e V V u 0 u p d N z y y ; ; w m w 1 ; o o x N B B d < 1 u u % % = 1 1 ; ; = = u u 0 q 1 = = % * e e 0 0 e z l l l ",
"x 0 5 u w y l y d d 0 0 j N j 0 0 y y b b R ~ j 1 1 1 1 q q N / x < 1 ; ; = & ; 1 1 1 1 * * y y 0 1 1 0 0 w w e e e e w w d N N ",
"b 5 ; p w x z c e e 0 5 b ! j ; ; y y / / _ | S 1 0 q q 2 2 N ` b 1 1 ; ; = & 1 0 0 q 1 % * y b 0 - 0 q e b b q q e c w 5 p B B ",
"y e w w 5 p x x b b e e p 6 p 0 0 e e x b S S d q q y y w w p w 0 1 1 ; ; 1 1 0 0 0 1 1 * - x z d w e q q 0 0 q q ; ; 5 0 w b b ",
"q z N w ; 0 w j / / z l 5 $ 5 l y q q 0 0 w p q q e m m S j ; * = 2 1 1 1 0 0 0 w 0 ; ; - 4 x c N N l q q = < 0 0 * + ; e e y y ",
"1 0 0 ; ; ; u p B R N z p 5 0 y e 0 0 0 0 ; ; 0 q e x x p p ; * ; q 0 = = 0 q q e 0 0 0 4 5 6 p j x e q q 1 1 e e ; - ; 0 0 0 0 ",
"% O O # : - ; 1 b b / ! z y y e e u 7 , ; +   * d w 1 1 = = * % 0 b e % % q q e e l ! B w w # # 5 p 0 0 q q e y y e q 1 = = % % ",
"= + O : - ; 0 u c b N R l e e q q p p 5 5 * + , x w 1 1 ; ; = * ; y 0 * * 0 q y c b B b w w , > u d w 0 q q q e e 0 0 ; = = = = ",
"e > * ; 1 e ! N e q 5 5 0 0 ; = ; d j K K J Z S N b - - 5 5 ; = = ; ; ; ; 0 0 } ..W y y e e e e N R b w w 0 0 5 5 * + + o % ; ; ",
"e - > ; 1 e B N e e 5 5 0 0 ; = ; j j K K J S S b x ; ; 5 w ; = = ; ; ; ; 5 5 P  .U e y e e e e b N x w w 0 0 5 5 - % % + * 0 0 ",
"w e e c c e = 1 c c = % ; 0 0 ; 0 ' ' J S b b w = ; e e J J w u 1 = ; 8 7 > * + X + 4 5 u u p 6 * + ; j p > - 0 e w w 5 > 5 ~ ~ ",
"w y y c b e = 1 b c = % ; 0 0 ; 0 ] ] J S H b 0 * ; y y J J d 0 1 = ; 8 8 > * o   + 4 5 u u 6 6 * o > j p > > q e e w 0 - 5 ~ ~ ",
"y w u m / j ; ; 0 0 d V ; % = 0 q y y y y Y / Y b j 1 1 U ) 0 1 0 p p Z Z y y ; = - # > u u ; ; ; 5 5 1 1 1 1 q q 1 ; 1 q y / / ",
"l w 5 m / S - ; 1 0 S J - o = q q e e e e Y / / / b = ; U ) 0 < 0 w d b b l l 0 ; - + * u u ; = 5 0 5 ; 1 1 1 q q 1 = 1 q y / / ",
"l p u w Z w w 0 1 1 e y d s d e q 1 q y l w u p s p ; ; y x e e 0 ; ; 0 0 x x w p u ; u b x = * p x y e e y e * * 0 y 0 1 0 c c ",
"z w w 6 9 w c y ; ; q q N / N e e 1 1 l b 0 = ; 5 5 4 5 e e y l 0 = = = = j b j Z d 0 y B N * % y N b c l z l + o w R w 1 1 e e ",
"z 5 ; 0 w w q q 0 0 e e y F b N c 1 1 d x 0 ; 5 u u 5 5 e y y l q ; 1 w w e y 5 > ; u w x x w 0 0 0 y c c l l ; ; p S 5 % = y d ",
"z - % 0 y q 1 0 y y y y q 0 x ` R = = p w p u p p p 5 5 y y y y e ; 0 R R e q * o * 5 5 w w B ! 0 & 0 b b l l y y s 9 *   % j j ",
"w ; - 0 e 0 1 0 y y q 0 0 u j / R 0 0 p w u 5 u y w 5 u e y y y 0 ; 5 b b q q 5 4 5 0 w b b b c 0 ; 0 d y l y q q u 9 > + - d d ",
"% 1 0 5 4 ; = 1 y y = & 5 6 Z ^ ^ N b q 0 1 ; w b c 0 0 e e y y 0 * - e e 5 ; ) ..R q y / / 0 5 w w 5 * ; l y 1 ; 1 1 ; ; ; 0 0 ",
"- 0 0 5 4 5 1 1 e e 1 ; 5 5 w R U x x q q 0 1 w c y 0 0 e e y y 0 * - e e 5 ; J ` U q e R R w w w e u - ; y y 0 0 0 0 1 1 1 0 0 ",
"w p 6 6 h p 0 0 5 6 N B 0 = ; 1 1 = = q q e w w 0 q e e e e y j 0 = 1 N N 0 5 5 , 5 w u , 5 J K m z e 0 0 q q j j w 0 e e e j j ",
"w 6 6 9 h p 0 0 5 6 N B 0 = ; 1 1 = = q q e w w 0 q e e e e d j 0 = 1 N N 0 5 5 , 5 w u , 5 J K m N e 0 0 q q j j w 0 e e e j j "
};
