/* XPM */
static char *result[] = {
/* columns rows colors chars-per-pixel */
"64 64 69 1 ",
"  c #010101",
". c #131313",
"X c gray11",
"o c #272727",
"O c #3C3C3C",
"+ c #444343",
"@ c #4C4B4C",
"# c #504D4E",
"$ c #514F50",
"% c #545454",
"& c #5D5D5D",
"* c #5F6060",
"= c #646363",
"- c #686767",
"; c #676866",
": c #696866",
"> c #6B6B6B",
", c #736E6E",
"< c #7A696A",
"1 c #747474",
"2 c #797777",
"3 c #7C7778",
"4 c #7B7A7A",
"5 c #826C6B",
"6 c #807F7F",
"7 c #838383",
"8 c #898586",
"9 c #8B8788",
"0 c #8C8C8C",
"q c #908D8D",
"w c #918F90",
"e c #929191",
"r c #999697",
"t c #9A9897",
"y c #9C9C9C",
"u c #A09F9F",
"i c #A0A09F",
"p c #A4A4A4",
"a c #A8A8A7",
"s c #AAA7A8",
"d c #ABABAB",
"f c #B0AEAF",
"g c #B3AFB0",
"h c #B4B3B3",
"j c #B8B3B4",
"k c #BCBCBC",
"l c #C3C3C3",
"z c #CCC7C8",
"x c #CCCCCC",
"c c #D3CECE",
"v c #D3D0CF",
"b c #D4CFD1",
"n c #D5D3D3",
"m c #DCDCDC",
"M c #E3DDDE",
"N c #E5DFE0",
"B c #E4E3E4",
"V c #E9E6E6",
"C c #EAE8E7",
"Z c #ECEBEB",
"A c #F2E3E3",
"S c #F3E7E8",
"D c #F3EDED",
"F c #F1EFF0",
"G c #F4F3F3",
"H c #F9F5F5",
"J c #FAF7F8",
"~ c #FFFFFF",
"K c #FFFFFFFF",
/* pixels */
"KKKKKKKKKKKKKKKKKKKKKKKKKKKKKKKKKKKKKKKKKKKKKKKKKKKKKKKKKKKKKKKK",
"KKKKKKKKKKKKKKKKKKKKKKKKKKKKKKKKKKKKKKKKKKKKKKKKKKKKKKKKKKKKKKKK",
"KKKKKKKKKKKKKKKKKKKKKKKKKKKKKKKKKKKKKKKKKKKKKKKKKKKKKKKKKKKKKKKK",
"KKKKKKKKKKKKKKKKKKKKKKKKKKKKKKKKKKKKKKKKKKKKKKKKKKKKKKKKKKKKKKKK",
"KKKKKKKKKKKKKKKKKKKKKKKKKKKKKKKKKKKKKKGa00dKKKKKKKKKKKKKKKKKKKKK",
"KKKKKKKKKKKKKKKKKKKKKKKKKKKKKKKKKKKKKGy-;>;pJKKKKKKKKKKKKKKKKKKK",
"KKKKKKKKKKKKKKKKKKKKKKKKKKKmddfdddl~~k&eee0&lKKKKKKKKKKKKKKKKKKK",
"KKKKKKKKKKKZy2lKKKKKGZh6774eyyiiiiy6re$8eee$lKKKKKKKKKKKKKKKKKKK",
"KKKKKKKKKKk&>1>lKKnx0>pxxxlB~~~~~~Gxk>@*>07*nKKKKKKKKKKKKKKKKKKK",
"KKKKKKKKKh>7ee7=Gk70nZJ~~~~~~~~~~~~~~FGn7**lKKKKKKKKKKKKKKKKKKKK",
"KKKKKKKKK>2eee7=1aG~~~~~~~~~~~~~~~~~~~~~~xphKKKKKKKKKKKKKKKKKKKK",
"KKKKKKKKKr>ee6O>nG~~~~~~~~~~~~~BmmmmBJ~~~~JfhJKKKKKKKKKKKKKKKKKK",
"KKKKKKKKKB&66>eC~~~~~~~~~~~~~BkyeereykB~~~~F2BKKKKKKKKKKKKKKKKKK",
"KKKKKKKKKKk*@lJZZZZ~~~~~~~~JCaepape0e0pB~~~~krKKKKKKKKKKKKKKKKKK",
"KKKKKKKKKKKk7xfryeaB~~~ZBG~Jhedltlheeeepm~~~Z0mKKKKKKKKKKKKKKKKK",
"KKKKKKKKKKK07r0eyyrpB~a7e0B~f0l* +lre00epB~~~fpKKKKKKKKKKKKKKKKK",
"KKKKKKKKKKx&0wehlhxidG9o$pJJd0l$ Olewwwe0n~~~F7mKKKKKKKKKKKKKKKK",
"KKKKKKKKKGe1ewyl@.7liGCpmG~~xehl6hkeweeeaB~~~~7xKKKKKKKKKKKKKKKK",
"KKKKKKKKKB%0weykX %kiG~~~~~~GpedhdtiihmMZ~~~~~xeGKKKKKKKKKKKKKKK",
"KKKKKKKKKC$90eele*khiG~~~J~~~mi0ealFCFHHJJ~~~~F>GKKKKKKKKKKKKKKK",
"KKKKKKKKKi:qwwqykkhel~~~~~~~~~BxvZGSAAASCG~~~~C1GKKKKKKKKKKKKKKK",
"KKKKKKKKK>qdpaai00epC~~~~~~~~~~~~GAAAAADJ~J~~~m>ZKKKKKKKKKKKKKKK",
"KKKKKKKKK1cGDDDClkxG~~JJJJJ~~~~~~SAAAADJ~~J~~~m>FKKKKKKKKKKKKKKK",
"KKKKKKKKJ2vSAAADJ~~~~By>,,0mJ~J~~DAAAAH~~m2>l~m;FKKKKKKKKKKKKKKK",
"KKKKKKKKK2cSAAAAG~~~~k>5<5<sJ~~~~JSDSD~~~4;1>kk0GKKKKKKKKKKKKKKK",
"KKKKKKKKK2nJSAAAJ~~~~Gh099pG~~~~~~~~~~~~J=4e7=+xKKKKKKKKKKKKKKKK",
"KKKKKKKKZ*k~JSSG~~~~~~~~~~~~~~~~~~~J~~~~~410e7OnKKKKKKKKKKKKKKKK",
"KKKKKKKGw+*n~J~~~~~JJ~~~~~~~~J~~~~~~J~~~~n$9ee=dKKKKKKKKKKKKKKKK",
"KKKKKKKx%w=0~~~~~~J~~~~~~~J~~~~~~~~~~~~~~m+20e6&GKKKKKKKKKKKKKKK",
"KKKKKKKx$w16F~~~~~~~~~~~~~~~~~J~~~J~~~~JJn+29e7&FKKKKKKKKKKKKKKK",
"KKKKKKKx@e0%k~~~J~~~~~J~~~~~~~~~~~~~~~GZNl+2708&GKKKKKKKKKKKKKKK",
"KKKKKKKx@ee41m~~~~~~~~~~J~~~~J~~~~~JCVNMn2*260&dKKKKKKKKKKKKKKKK",
"KKKKKKKm>6ee41mJ~~~~~~~~~~~~~~~GFFNNMMns1&2464>mKKKKKKKKKKKKKKKK",
"KKKKKKKKp*ee02;lBFSSCZZDJDZZZDZBMMMvl2:#&6770*aKKKKKKKKKKKKKKKKK",
"KKKKKKKKZ71ee04$3hgzNMmBVBMMMcdhjje#@&&9hBml47ZKKKKKKKKKKKKKKKKK",
"KKKKKKKKKZ910e04&++-888889999,++++#>3djCJ~~F1mKKKKKKKKKKKKKKKKKK",
"KKKKKKKKKKZ6%469842=@@@@@@@@@&1770lxnJ~~~~JG4mKKKKKKKKKKKKKKKKKK",
"KKKKKKKKKKKFl1@kClaiiiyyuuutiypmCZJ~~~~~~~~~l0KKKKKKKKKKKKKKKKKK",
"KKKKKKKKKKKKKn0B~~JJJJJJJHJJJJJ~~~~~~~~~~~~~Z0nKKKKKKKKKKKKKKKKK",
"KKKKKKKKKKKKKdy~~~~~~~~~~~~~~~~~~~~~~~J~~~~~~ppKKKKKKKKKKKKKKKKK",
"KKKKKKKKKKKKKdy~~~~J~~~~J~~~~~J~~~~~~~~~~~~~~lrGKKKKKKKKKKKKKKKK",
"KKKKKKKKKKKKKdy~~~~~~~~~~~~~~~~~~~J~~J~~~J~~~~7xKKKKKKKKKKKKKKKK",
"KKKKKKKKKKKKKdy~J~~~~~~J~~~~J~~~~~~~~~~~~~~~~~n9GKKKKKKKKKKKKKKK",
"KKKKKKKKKKKKKneC~~~~~~~~~~~J~~~~~~~~~~~~~J~~~~B>GKKKKKKKKKKKKKKK",
"KKKKKKKKKKKKKK6x~~~~~J~~~~~~~~~~J~~~~~J~~~~~~~m>BKKKKKKKKKKKKKKK",
"KKKKKKKKKKKKKKpf~~J~~~~~~~~~~~~J~~~~~~~~~~~~~Zx4eKKKKKKKKKKKKKKK",
"KKKKKKKKKKKKKKZ4C~~~~J~~J~~~J~~~~~~~J~~~~~~~Zmh>7KKKKKKKKKKKKKKK",
"KKKKKKKKKKKKKKF*k~~~~~~~~~~~~~~~~~~J~~~~~J~GBkr0=zKKKKKKKKKKKKKK",
"KKKKKKKKKKKKKKJ00F~~~~~~~~~~~~J~J~~~~~~~~~Gmkeee>wGKKKKKKKKKKKKK",
"KKKKKKKKKKKKKKKz$hBJ~~~~~~~~~~~~~~~~J~~~JFmke0e00%nKKKKKKKKKKKKK",
"KKKKKKKKKKKKKKKm;7yhmGJJJ~J~~~~~~~~~~~GGBbh90ewwe17KKKKKKKKKKKKK",
"KKKKKKKKKKKKKKKKy*e0edhnBZGZFFDFGZDDZVmkge67wewew8>eaGKKKKKKKKKK",
"KKKKKKKKKKKKKKKKy*0e099rryzcbnvvvvnjyyr,==>14wee0e7%&FKKKKKKKKKK",
"KKKKKKKKKKKKKKKKy*eeee0977884*&&&&&%@%%=>---;=4e091;xKKKKKKKKKKK",
"KKKKKKKKKKKKKKKKn;7eeeeee96&%0ereerereyBKKKJZa142%*xKKKKKKKKKKKK",
"KKKKKKKKKKKKKKKKK>4ee0e01*%rmKKKKKKKKKKKKKKKKKm>%pBKKKKKKKKKKKKK",
"KKKKKKKKKKKKKKKKKp>0ee0>4zGJKKKKKKKKKKKKKKKKKKKGZKKKKKKKKKKKKKKK",
"KKKKKKKKKKKKKKKKKm%0e0*dKKKKKKKKKKKKKKKKKKKKKKKKKKKKKKKKKKKKKKKK",
"KKKKKKKKKKKKKKKKK4+&&&&mKKKKKKKKKKKKKKKKKKKKKKKKKKKKKKKKKKKKKKKK",
"KKKKKKKKKKKKKKKKKh0000vKKKKKKKKKKKKKKKKKKKKKKKKKKKKKKKKKKKKKKKKK",
"KKKKKKKKKKKKKKKKKKKKKKKKKKKKKKKKKKKKKKKKKKKKKKKKKKKKKKKKKKKKKKKK",
"KKKKKKKKKKKKKKKKKKKKKKKKKKKKKKKKKKKKKKKKKKKKKKKKKKKKKKKKKKKKKKKK",
"KKKKKKKKKKKKKKKKKKKKKKKKKKKKKKKKKKKKKKKKKKKKKKKKKKKKKKKKKKKKKKKK",
"KKKKKKKKKKKKKKKKKKKKKKKKKKKKKKKKKKKKKKKKKKKKKKKKKKKKKKKKKKKKKKKK"
};
