/* XPM */
static char *result[] = {
/* columns rows colors chars-per-pixel */
"64 64 213 2 ",
"   c #040401",
".  c #0A0A04",
"X  c #0F0E08",
"o  c #151209",
"O  c #151408",
"+  c #1C190D",
"@  c #1E1910",
"#  c #221B14",
"$  c #241E19",
"%  c #262215",
"&  c #2B2514",
"*  c #2C2816",
"=  c #2C251B",
"-  c #2E291C",
";  c #342D14",
":  c #352C1B",
">  c #3A2E1D",
",  c #373115",
"<  c #36301B",
"1  c #3B331D",
"2  c #2A2A23",
"3  c #2F2E28",
"4  c #322E25",
"5  c #392F21",
"6  c #332E2B",
"7  c #3C3422",
"8  c #3F3823",
"9  c #34312B",
"0  c #3A342D",
"q  c #3B392E",
"w  c #373130",
"e  c #3A3532",
"r  c #3D3A33",
"t  c #3F3D38",
"y  c #42361D",
"u  c #42391D",
"i  c #483B1F",
"p  c #423623",
"a  c #443B23",
"s  c #493E24",
"d  c #443D2A",
"f  c #493E2A",
"g  c #423C35",
"h  c #433E39",
"j  c #4A401F",
"k  c #464024",
"l  c #4C4224",
"z  c #4C432B",
"x  c #4F4928",
"c  c #534525",
"v  c #544A25",
"b  c #5A4A26",
"n  c #52462A",
"m  c #58472B",
"M  c #544A2C",
"N  c #5A4D2C",
"B  c #5D522D",
"V  c #454135",
"C  c #4A4334",
"Z  c #45413A",
"A  c #4A453C",
"S  c #4E493D",
"D  c #504731",
"F  c #544B32",
"G  c #5A4E33",
"H  c #524C3E",
"J  c #5D5234",
"K  c #5D5339",
"L  c #59533D",
"P  c #614F2A",
"I  c #62542D",
"U  c #68572F",
"Y  c #65582E",
"T  c #69592F",
"R  c #625532",
"E  c #655A34",
"W  c #6A5D35",
"Q  c #61553B",
"!  c #655B3B",
"~  c #6A5D3B",
"^  c #6D6136",
"/  c #6D623C",
"(  c #726336",
")  c #72653D",
"_  c #74693D",
"`  c #7B6D3E",
"'  c #4C4740",
"]  c #4E4942",
"[  c #524D44",
"{  c #584F46",
"}  c #554F48",
"|  c #565145",
" . c #595346",
".. c #565149",
"X. c #5B554B",
"o. c #5E584C",
"O. c #5C5750",
"+. c #5E5951",
"@. c #605743",
"#. c #645A42",
"$. c #6A5E42",
"%. c #615B4E",
"&. c #635D53",
"*. c #685F57",
"=. c #6D6343",
"-. c #676049",
";. c #6C624B",
":. c #726642",
">. c #786742",
",. c #746A44",
"<. c #7A6D44",
"1. c #72664A",
"2. c #756B4A",
"3. c #7A6E4B",
"4. c #7D7144",
"5. c #777049",
"6. c #7C734B",
"7. c #666054",
"8. c #6A6456",
"9. c #666159",
"0. c #6B655A",
"q. c #6E685B",
"w. c #736C56",
"e. c #7B6E51",
"r. c #71665D",
"t. c #726B5D",
"y. c #7D7352",
"u. c #7F7957",
"i. c #77705B",
"p. c #79735C",
"a. c #6D6760",
"s. c #6E6861",
"d. c #756E62",
"f. c #796E63",
"g. c #767063",
"h. c #7B7364",
"j. c #7F7965",
"k. c #7B7068",
"l. c #7F796B",
"z. c #81713F",
"x. c #817442",
"c. c #837943",
"v. c #887B46",
"b. c #83744B",
"n. c #85794C",
"m. c #8A7E4A",
"M. c #827653",
"N. c #847B53",
"B. c #8B7D54",
"V. c #82765C",
"C. c #857C5B",
"Z. c #8A7D5D",
"A. c #837C63",
"S. c #8A7F60",
"D. c #81756B",
"F. c #837B6D",
"G. c #887C6E",
"H. c #847E71",
"J. c #8B7F71",
"K. c #8C804C",
"L. c #868056",
"P. c #8B8156",
"I. c #8D825B",
"U. c #928556",
"Y. c #93855D",
"T. c #93895F",
"R. c #878064",
"E. c #8C8363",
"W. c #86806B",
"Q. c #8B846C",
"!. c #928661",
"~. c #958B64",
"^. c #9B8C64",
"/. c #928768",
"(. c #938B6C",
"). c #9B8E6A",
"_. c #9E9165",
"`. c #97906E",
"'. c #9C926C",
"]. c #8C8173",
"[. c #8C8573",
"{. c #8D8779",
"}. c #8E887A",
"|. c #938D73",
" X c #948A7A",
".X c #979170",
"XX c #9C9472",
"oX c #9B9577",
"OX c #9A947A",
"+X c #9E997B",
"@X c #A09365",
"#X c #A2966D",
"$X c #A4986E",
"%X c #A29572",
"&X c #A49A73",
"*X c #A99E75",
"=X c #A49B7A",
"-X c #A99E7C",
";X c #AAA076",
":X c #ABA17C",
">X c #B1A47C",
",X c #9A9080",
"<X c #A49E82",
"1X c #AB9F81",
"2X c #A7A185",
"3X c #ACA383",
"4X c #ACA589",
"5X c #AEA88B",
"6X c #B1A683",
"7X c #B4A984",
"8X c #B2A788",
"9X c #B2AB8A",
"0X c #B8B18E",
/* pixels */
"A ' ] ..%.r.f.f.g.d.0.9.9.9.9.9.&.X.h e e h ' +.s.k.d.*.+.+.O.' t w 6 6 w g h h ] A Z Z ' ] ] X.*.d.f.k.g.d.9.7.9.9.9.*.O.[ t e ",
"} X.O.&.f.D.H.G.F.H.F.h.0.&.+.+...A h w e h } *.a.a.9.&.+.O...' g e 6 3 6 6 e h A H ] [ ..X.%.*.f.F.H.H.F.F.l.d.9.&.+.X.} Z e e ",
"X.%.&.d.D.J.J.J.J.J.J.k.&.A t r g e 0 0 e ] &.0.0.0.9.&...[ ' ' g r 9 6 0 g A S } }  . .X.%.*.f.G.J.J.J.].].G.f...Z t e g 0 e w ",
"%.%.*.d.G.J.J.J.J.H.f.%.A 6 2 2 2 4 0 4 w h X.0.q.0.&.O.[ ' t h t e 9 9 e S [ {  .o.o.o.&.&.0.f.G.J.].J.G.D.r. .g 4 2 2 4 6 6 6 ",
"%.*.r.f.D.J.J.J.J.k.X.0 2 2 = 2 2 4 0 4 9 t  .7.9.&.X.} ] A t t t e q t H  .o.%.&.%. . .%.0.d.k.G.J.].].G.r.S 6 2 2 2 2 4 6 5 6 ",
"] &.k.D.D.G.G.G.G.&.g 2 2 2 2 2 4 6 0 0 Z S ] ......[ [ h e e w e r ] &.t.t.d.t.f.X.A A X.0.k.l.G.J.J.G.D.{ 6 2 2 2 = 2 4 6 0 g ",
"h O.r.s.k.k.f.D.t.{ 4 2 2 2 2 2 0 r g Z S ] ..+.0.7.X.[ h w w w e ] 0.l.H.H.F.l.f.X.e h [ *.s.g.d.f.k.f.q.h 4 2 2 = 2 4 e g g A ",
"h [ O.&.+.O.%.X.X.A 3 2 2 2 3 0 Z A ] ' ] ..9.l.J.F.0.X.' h e h [ a.H.{.{.{.].F.d.} g r A } o.+.%.X.%.o.{ d 4 2 2 2 9 e A A ] A ",
"g h h h h g g r d 0 4 2 2 9 V A H ] ] ] | 0.l.[.}.W.g.q.+.O.O.O.0.l.{.,X}.}.{.l.+.S t r t Z Z Z Z d r r q 9 3 2 2 w A A ] ] ] ] ",
"A A g e 0 9 4 9 6 4 3 2 t | o.o.o. .X.X.%.g.[.|. XW.p.t.9.+.X.X.&.g.l.{.{.{.l.0.] ' S S H Z r q 0 9 9 9 5 4 2 9 Z ..o.o.o.X.o.o.",
" . .A e 9 6 6 3 3 2 2 r | 8.0.q.8.7.7.7.7.g.W.|.{.W.i.;.+...[ ] } +.g.l.H.l.0.] t ] X. .o.| t r 9 6 3 3 3 2 4 Z &.0.q.8.8.7.7.7.",
"*.0.} h e e 9 6 2 2 0 S %.q.q.q.q.q.8.7.8.q.g.j.j.i.8. .| ] ' A ' ] O.9.a.+.] t t ] o.%.9.9.] t w w 9 3 2 2 q | 7.q.q.q.w.8.7.7.",
"9.r.+.' h h t 6 3 9 A o.8.q.q.q.q.t.t.q.q.q.q.q.%. .H S A Z V t r r t A ] ] t 9 r [ 9.9.a.9...t t h e 9 3 e ] &.q.q.q.q.q.q.q.q.",
"0.9.O.' h h g 0 6 r | 9.q.t.q.t.t.g.t.q.q.q.7.X.S g q q r r q 9 3 9 9 t S S t q 9 [ a.s.a.9...] Z Z g 9 w Z X.q.q.t.q.q.i.g.g.d.",
"9.9.[ t h g e 6 6 r | 7.q.i.g.g.t.q.&.o. . .| S q 9 9 q e t r 0 9 e t A | | | ] t [ a.s.a.+.' t h r e 6 w Z o.q.i.g.g.g.g.q.q.7.",
"9.+.] t h e w w 6 r | 9.d.g.g.q.7...[ H | L ] S r q 9 q Z ' ' Z t h Z ] ..X.X.| Z ..0.a.9.O.Z t r e w 6 9 Z o.0.t.g.g.g.q.7.X.[ ",
"] ' t t q r 9 e e h } &.&.&.*.%.S h g h S L { ..| ] [ | &.0.0.o.] ] S | | | H S Z ] ..O...Z t r e w e e r A ..&.*.*.0.7.%.[ h g ",
"3 9 9 9 3 9 9 t A A [ { [ [ [ A d g g e h [ %.8.0.q.g.j.F.[.J.g.%.| |  .| S Z Z A t q q 9 9 3 9 6 w e g A ] [ ..] [ ..{ A g g g ",
"2 3 3 9 3 w w t A ] ] } A A h g e 0 0 5 e ] &.8.q.g.F.{. X X{.r.| [  .| S t q V A t 9 3 3 3 9 3 6 w e g A [ [ } h h A h g g 0 5 ",
"3 3 3 3 3 3 3 w A [ A [ ..X. .[ g g g 0 g A [ %.q.g.F. X,X XG.&.[ [ | H V t t Z Z t 3 3 3 9 3 9 3 6 6 e h A [ ] A [ {  .S g g e ",
"9 9 3 3 9 3 9 t [ [ H [ 9.f.s.%.H A H C g g h { 7.q.d.H.{.].q...] ] ] Z t t S | ] t q 9 e 9 9 9 6 3 3 9 t [ } A } 7.g.r.%.[ A S ",
"V t 0 3 9 e Z ]  . .o.0.h.d.&.X.}  . .H C C [ ..} } |  .7.+.A t t q t t q S | %.%.o...] ] A t 9 3 9 0 V [  . .o.7.g.g.&. ...{  .",
"A Z q 0 q t ] o.o.o.%.0.q.7.} [ ..o.X. .{ {  .X.} ] } ] | ] Z 0 3 3 9 q t Z  .7.7.7.&.....] Z q e e r S X.X.@.%.0.q.*.{ [ ..o.%.",
"Z Z r t Z A S  . . .....o.X.] [  .o.%.X. . .X.%.X.O.O.O.X.| [ V q 9 q t t t H ..o.%.O.| [ ] Z t t V A S  . . .| ..X.o.[ [ .. .o.",
"Z h h h ' A A S Z h h ' [ ..} } ..o.X.[ H  . ...O.%.O.&.o. .[ H ] S S Z A t t Z ' ] ] ' Z Z t t h ' A ' ' A h A A } ..{ } ..%.@.",
"t Z t t Z Z h t e e e h ] ..} .. .%.%.H h S ] [ X.O.&.*.8.7. .X.| S Z A ] Z Z Z h h h Z t h Z Z Z h h h h e e e t ] ........X.X.",
"t Z t ' t t e w w w w w t g Z ] }  .{ S g g h Z [ ..&.0.t.8.o. .| S t t t V Z Z g g t g h t Z t h h h e w w w 6 6 e h h S [ {  .",
"Z Z Z t Z e w e e e 6 $ @ $ = d H A A C h V g C C  .*.9.q.7.| } | S C 8 - - 8 C C V V V Z Z Z Z Z h e e w e r 6 $ # # = d [ S A ",
"Z Z Z Z g e h | %.X.V @ o # 5 | %. .S Z Z h g C C  .&.7.8.8.&.o.7.8.@.d * % z -.-.| V C g A Z Z Z h e h } X.o.Z # o @ 4 H %.X.H ",
"' ' S ] [ [ %.j.].G.9.d - - d  .w.p.8.7.%. .[ S S o.q.p.A.A.F.F.G.G.8.f * - L C.L.1.H H A A ] | | |  .8.j.[.j.o.5 # $ C w.E.p.#.",
"%.&.&.q.p.p.Q.<X2X<XOXi.| 7 = d i.+X=XOX|.A.q.&.&.t.A.OX<X<X<X<X+XW.8.f : p #.C.(.R.w.%.%.&.7.w.p.j.|.<X<X<X|.w.S = % H W.-X(.1.",
"Q.Q.Q.(.`.XX=X5X5X5X,XW.%.0 $ C C.2X4X2X<X+X|.[.Q.|.+X<X4X5X5X5X3XoXV.H : C $.Z.`.`./.E.Q.Q.Q.(.`.XX2X5X9X4XOXt.[ - : @.(.oXi.1.",
"=X-X1X1X3X-X3X6X3X8X%XD.@.p = D u.+X=X=X2X2X2X2X<X<X2X1X8X8X8X8X9X3XS.G 5 f 1.S.`.'.XXXX=X:X-X1X:X3X3X3X8X3X|.i.H 5 5 @.!./.:.W ",
"=X1X1X1X1X1X1X:X1X-X.XM.#.s > s =.E.`.&X:X:X3X3X5X4X5X8X8X7X7X6X6X&XM.F p n 1.I.~.'.`..X+X:X-X3X2X1X:X:X-X-X/.2.F p 5 m e.Y.b.J ",
"%X=X*X*X-X-X>X*X*X%XS.1.K f > > J E.&X:X7X6X6X5X5X5X9X0X7X7X>X%X).!.3.m p G 3.!.&X&X%X).XX=X-X-X:X:X:X>X*X).V.~ m p > p ;.Y.c.k ",
"%X%X&X&X&X&X*X*X*X^.M.#.m p : : G !.:X:X:X:X:X3X4X9X0X0X7X;X%X!.M.>.~ F n $.M.!.:X3X=X=X&X=X&X$X&X$X*X*X&XR.2.Q f p : > Q N.c.J ",
"=X=X&X_.@X@X#X&X%XS.1.K s > > y Q (.-X-X&X$X=X2X4X8X9X0X6X%X!.B.>.N m n G 3.B.!.*X1X6X3X:X%X#X@X@X@X#XXX~.y.#.F y : : 1 F <.m.n.",
"3X-X'.^.^.^.@X@XI.3.Q n i i y s / ^.*X$X$X$X&X3X8X8X6X*X%X^.M.~ N c c c N >.b.B.).>X8X8X-X_.^.@X_._.Y.M.:.Q M l y y y u c ) U.U.",
"*X%X^.!.Y.Y.Y.P.5.! F c j j j l W Y.@X$X&X$X$X*X*X&X@X^.Y.B.b.N i j c s n R :.b.S.*X6X>X^.S.Z.S.Y.I.3.~ F l l j i s j j l E U.^.",
"^.!.B.B.B.B.n.3.! F l l v b v j J M.).$X#X#X_.^._.~.U.U.B.3.=.R l c m n s l Q <.B.^.%X@XB.B.B.B.m.b.:.G l k l j b P b v j N M.~.",
"b.b.b.b.b.b.>.Q M z s j c P I c G b.~.'.'.'.^.!.T.I.T.!.M.) B G Q Q N n s l J >.b.B.B.b.b.b.b.b.b.<./ G l a i c b P T Y v N 6.E.",
"x.x.x.x.x.x.$.G f a s c b U I b G =.N.E.!.~.T.I.P.P.T.!.6.R s J / $.R N n s N ~ ) z.x.` ` x.x.x.4.,.~ M k a l c P U T T b b =.N.",
"_ z.` z.<.) W m s n m m I U U I b E ,.y.N.T.I.N.N.P.I.N.:.N n E >.:.~ G m s f I ^ _ ) ) ` ` ` ` <.:.Q n l z c N I U U U P N ! 3.",
"( ) ) _ ( E F m n J ~ J I I I Y B Y ( x.K.K.K.N.L.N.N.:.Q N m W ( ) W I m s i c E ) ) ) _ _ _ _ ) / B v M Q R N I U U U I I ( 4.",
") _ _ ) W B M b J W >.~ Y J Y Y Y I ( z.v.K.K.L.L.L.N.5.~ R N E W ( W R N c s s N ! =./ ) _ _ E b b v M v B M l v B Y E I T ( ( ",
"_ ,._ ( T b M R E :.<.<.^ J Y Y Y I ( z.v.v.n.N.N.Z.I.N.>.U N N I W E B N m s u l J ~ / / _ / B s , y u i i u u M B Y E I Y W E ",
"<._ :.^ I N N W :.,.,.5./ ^ Y B B B ^ ` x.4.4.N.N.!.!.C.) P M b I I I B N N c a l N ! / :.) / Y s & & & & , , , l M M v M M M M ",
"5._ ( W I J W :.<.5.5.y.5.,.^ Y P Y ^ ` c.x.c.c.b.B.Y.B.<.E b J W ,.,.) ) W R N M G E :.,._ / W P l v s ; ; ; & * * * * * * % % ",
"6.<.,.( U Q W :.<.6.6.6.L.L.,.^ P I ( z.z.x.z.c.c.n.L.L.6./ R E ,.6.n.M.n.4.) ^ I J W 5.6.,.W E I E :.W v x x 1 1 8 - O X . . . ",
"b.b.b.,.W I E W ,.5.6.L./.R.6.=.~ P T ` z.x.c.c.c.L.R.L.y.~ I ~ ,.3.b.n.n.6.5./ R ! ,.u.M.<.( E R W :.2.5.5.5._ _ ` B * + X     ",
"M.b.6.` W E E / ,.6.L.L.L.y.,./ W ~ W _ z.x.z.` c.N.E.E.u./ ! / ,.y.b.4.6.4.5.^ J / 3.N.M.<.~ R J / ,.6.u.L.N.4.5.,./ J B 8 X   ",
"M.6.4.:.W Q E / ,.6.L.6.y.5.=./ ) ) _ ` z.z.4.4.6.B.R.I.2./ ! / =.3.3.6.<.<.1.^ B ! 5.u.b.<.W E E / _ 5.n.N.y.5.,./ / 5.4.^ 8 < ",
"6.5.<.:.W E E / ) 5.6.6.5.,./ / =.<.<.<.x.4.b.y.u.N.C.3.>./ E ! =.:.2.4.5.) / E J ! 2.y.5.,./ E ^ / _ 5.6.6.6.2.,.=./ / _ ,._ _ ",
"3.,.=.~ ! E W ) ,.,.5.) / / E E / >.,.6.M.M.y.M.C.C.M.2.=./ E E W =.,.5.,.) ^ E B ~ 2.y.2./ ! E ^ / :.,.2.5.:.) / W E / :.2.3.6.",
">.:.$.Q Q J W :.) :.=./ ^ ^ E ^ / 1.1.e.e.e.e.6.u.V.y.<.=./ E E / / ,.,./ / ^ E J / 2.y.,.K J J E / _ :._ :.) / ^ E E W =.1.2.e.",
"=.,.~ E B I / ,.) ) / ^ ^ ^ B J ~ $.1.e.1.e.1.3.3.e.3.2./ / E Q K / ,.,./ ^ E B B ! 2.y.,.E B J B / ,.,./ :./ ^ E E J W W / ;.#.",
",.1.:.K v E ,.w.2.:./ E E B b J R ! :.1.1.1.>.1.,.,.3.,./ ^ J J J / ,.1./ ^ B B N ! 1.5.2./ M x N / 5.w.1./ W E E B B B E ! N k ",
"=.=./ J M Q ,.y.5.,./ ! J v c M N J Q ~ ~ ~ ~ 1.:.=.=./ ^ K J N J ^ =.1.#.K Y B G G ! :.=.J x x M / 2.5.3.,.=.W ^ Y B B b v x < ",
"/ =.G z C J =.2.2.1.=.E N n l n n N N N N N Q ~ ~ ~ / ! / J x M J ! -.=.=.K J B M M J ! K F d d D ! 1.2.=./ E J B N x k j 1 < * ",
"=.L z 8 z K $.;.-.! / K G l a s n M N M n n N R Q Q / K L x a x J ! =.-.=.K N J M M N J G z 8 8 F K =.#.G x M M 1 * % @ + + O X ",
"L F 8 7 a F Q @.@.K Q J N l 1 y a l M n c c N J Q Q Q Q F l u x Q ~ #.Q J K M x M F G L G z 1 7 V L Q Q G M ! ) K K k + . .   . ",
"L x 7 < > f D G G G G M z y 1 1 p a z l s f n G R Q Q R n a a M K @.Q J F N x z x z G L H d > : 1 x F G H G ~ <.5.,.K * + % - + ",
"F 8 < : 5 p f z n C n z a < : < 1 a a a s f n n F G G D a a z z F K L F F z z x a z D K z 8 : : 7 a z C z M M x k k 8 < 5 x / 8 ",
"C 8 5 5 p p p d a s s s 1 < < < 1 p a a a s x n n n z f p 8 a a x F F F n f z z d d z F d 7 5 5 p p a a d s a a 1 , < < 8 x L k "
};
