/* XPM */
static char *_162999744b24ff9d2d6cf1c9b2b5454TVUIxItLJmOE9ovp[] = {
/* columns rows colors chars-per-pixel */
"64 64 12 1 ",
"  c None",
". c #000204",
"X c #12372B",
"o c #6D4833",
"O c #855941",
"+ c #9B6B51",
"@ c #837274",
"# c #328268",
"$ c #5BB48F",
"% c #9A8584",
"& c #B3B9D5",
"* c #EBEBED",
/* pixels */
"                                                                ",
"                                                                ",
"                                                                ",
"                                                                ",
"                                                                ",
"                                                                ",
"                             ......                             ",
"                            .+++++O.                            ",
"                           .OOOOOOOO.                           ",
"                           .OOOOOOOO.                           ",
"                           .OOOOOOoo.                           ",
"                            .oooooo.                            ",
"                             ......                             ",
"                            .&%%%%&.                            ",
"                            .&%%%%&.                            ",
"                            .&@@@@&.                            ",
"                             .&%%&.                             ",
"                             .&&&&.                             ",
"                             .&*&&.                             ",
"                             .**&&.                             ",
"                             .**&&.                             ",
"                             .*&&&.                             ",
"                             .*&&&.                             ",
"                             .*&&&.                             ",
"                             .*&&&.                             ",
"                             .*&&&.                             ",
"                             .&&&&.                             ",
"                             .&&&&.                             ",
"                             .*&&&.                             ",
"                             .*&&&.                             ",
"                             .*&&&.                             ",
"                            .&&&&&&.                            ",
"                           .&&&&&&&&.                           ",
"                          .&&&&&&&&&&.                          ",
"                         .&&&&&&&&&&&&.                         ",
"                        .&&&&&&&&&&&&&&.                        ",
"                       .&&&&&&&#########.                       ",
"                      .##################.                      ",
"                     .####$$$#############.                     ",
"                    .###$$$################.                    ",
"                   .###$$$##################.                   ",
"                  .###$$$####################.                  ",
"                 .####$$######################.                 ",
"                .####$$########################.                ",
"               .####$$$#########################.               ",
"               .####$$##########################.               ",
"              .####$$$###########################.              ",
"              .####$$$###########################.              ",
"              .####$$$##XXXXXXXXXXXXXXXX##$######.              ",
"              .#####$$$XXXXXXXXXXXXXXXXXX$$X#####.              ",
"               .###XX$$$XXXXXXXXXXXXXXX$$$XXX###.               ",
"                ..###X$$$$XXXXXXXXX$$$$$$XX###..                ",
"                  ..###$$$$$$$$$$$$$$$XX####..                  ",
"                    ...###$$$$$$$$XX#####...                    ",
"                       ....##########....                       ",
"                           ..........                           ",
"                                                                ",
"                                                                ",
"                                                                ",
"                                                                ",
"                                                                ",
"                                                                ",
"                                                                ",
"                                                                "
};
