/* XPM */
static char *result[] = {
/* columns rows colors chars-per-pixel */
"64 64 255 2 ",
"   c #000000",
".  c #07070A",
"X  c #06090B",
"o  c #0A0C0D",
"O  c #0B0E13",
"+  c #080E18",
"@  c #0C1215",
"#  c #13151B",
"$  c #040C2E",
"%  c #0E1623",
"&  c #161A26",
"*  c #151B2B",
"=  c #161D31",
"-  c #18212B",
";  c #1B212B",
":  c #1B2334",
">  c #1D2A33",
",  c #182438",
"<  c #1C2D3C",
"1  c #1F3036",
"2  c #23262B",
"3  c #262B35",
"4  c #232C34",
"5  c #232B3B",
"6  c #24323C",
"7  c #29343B",
"8  c #30353A",
"9  c #66393F",
"0  c #0E1C4E",
"q  c #192848",
"w  c #1F314B",
"e  c #152658",
"r  c #1E3356",
"t  c #222B46",
"y  c #2A3344",
"u  c #25344B",
"i  c #2C354C",
"p  c #283948",
"a  c #323B45",
"s  c #373C46",
"d  c #333D4C",
"f  c #252D51",
"g  c #293554",
"h  c #263856",
"j  c #2B3A54",
"k  c #23345B",
"l  c #2C3C5B",
"z  c #323A53",
"x  c #343C5A",
"c  c #172B65",
"v  c #1C366B",
"b  c #1D3574",
"n  c #243B66",
"m  c #2C3C62",
"M  c #323E64",
"N  c #233B72",
"B  c #253876",
"V  c #753B44",
"C  c #2E434C",
"Z  c #37424B",
"A  c #2C4354",
"S  c #2C415C",
"D  c #334255",
"F  c #3A4354",
"G  c #34435B",
"H  c #384958",
"J  c #3B4C5B",
"K  c #3E515D",
"L  c #2B4465",
"P  c #2B446C",
"I  c #2C4A6D",
"U  c #344563",
"Y  c #354A65",
"T  c #3B4A63",
"R  c #34446B",
"E  c #37486A",
"W  c #3A4C6B",
"Q  c #3C5665",
"!  c #3C536C",
"~  c #2A4777",
"^  c #354A75",
"/  c #3C4A7C",
"(  c #2E527C",
")  c #335376",
"_  c #3B5473",
"`  c #365778",
"'  c #3B547B",
"]  c #3C5B7C",
"[  c #3C617E",
"{  c #414A54",
"}  c #434C5C",
"|  c #49525C",
" . c #48555C",
".. c #53575D",
"X. c #784649",
"o. c #424D66",
"O. c #435462",
"+. c #4A5661",
"@. c #42526C",
"#. c #45596C",
"$. c #4A5B68",
"%. c #525C67",
"&. c #454D76",
"*. c #445574",
"=. c #4B5576",
"-. c #435B73",
";. c #4B5C74",
":. c #44557B",
">. c #425D7B",
",. c #4A5C7B",
"<. c #575D75",
"1. c #4B616D",
"2. c #56626C",
"3. c #4B6374",
"4. c #486677",
"5. c #45627C",
"6. c #4B637B",
"7. c #536374",
"8. c #5B6675",
"9. c #54647B",
"0. c #546C7C",
"q. c #5C6B7B",
"w. c #56727F",
"e. c #636D7B",
"r. c #646C78",
"t. c #68727D",
"y. c #1F3686",
"u. c #243C88",
"i. c #2A4383",
"p. c #2C4986",
"a. c #2E4F89",
"s. c #374B82",
"d. c #395687",
"f. c #355591",
"g. c #395793",
"h. c #3B5B95",
"j. c #3B5C9B",
"k. c #3A6789",
"l. c #3D6694",
"z. c #3E629C",
"x. c #3D7191",
"c. c #3C5DA0",
"v. c #3E63A2",
"b. c #435583",
"n. c #435C82",
"m. c #45538C",
"M. c #4B568B",
"N. c #445C8A",
"B. c #4B5988",
"V. c #535B89",
"C. c #4A5A94",
"Z. c #4A6383",
"A. c #456887",
"S. c #4C6B84",
"D. c #4A628B",
"F. c #576986",
"G. c #516D8B",
"H. c #42758E",
"J. c #49768A",
"K. c #547383",
"L. c #5B7384",
"P. c #577689",
"I. c #5C7C8B",
"U. c #486596",
"Y. c #446B9D",
"T. c #566897",
"R. c #467797",
"E. c #497C94",
"W. c #537393",
"Q. c #5A7798",
"!. c #656A84",
"~. c #627485",
"^. c #6C7584",
"/. c #657987",
"(. c #637B8C",
"). c #6B7A8B",
"_. c #737B8A",
"`. c #636D96",
"'. c #657A98",
"]. c #436BA3",
"[. c #456BA6",
"{. c #566BA2",
"}. c #4774A5",
"|. c #4B73A4",
" X c #4B74AB",
".X c #4E79AC",
"XX c #5877A6",
"oX c #537BAB",
"OX c #4C78B1",
"+X c #557EB2",
"@X c #6577A8",
"#X c #6F7AA9",
"$X c #677DB6",
"%X c #5B818C",
"&X c #4C8198",
"*X c #588599",
"=X c #69818D",
"-X c #78828D",
";X c #6B8492",
":X c #6C8A95",
">X c #678899",
",X c #768797",
"<X c #738C9A",
"1X c #76939D",
"2X c #578BA3",
"3X c #5B88A5",
"4X c #5984B5",
"5X c #5D8BBC",
"6X c #6484A4",
"7X c #668AA6",
"8X c #6485AB",
"9X c #6B8CAD",
"0X c #7389A4",
"qX c #6796AA",
"wX c #7B95A1",
"eX c #7A99A7",
"rX c #698AB5",
"tX c #7387B4",
"yX c #6C99B5",
"uX c #6293BC",
"iX c #7697B8",
"pX c #74A2B0",
"aX c #76A4B8",
"sX c #7CA3BD",
"dX c #5F8FC2",
"fX c #6799C5",
"gX c #78A7C3",
"hX c #73A8C7",
"jX c #808C97",
"kX c #859AA6",
"lX c #8497B4",
"zX c #919EB5",
"xX c #88A2AB",
"cX c #92A5AE",
"vX c #86A6B9",
"bX c #95AAB7",
"nX c #9AB3BB",
"mX c #A2B7BE",
"MX c #87A8C5",
"NX c #97AAC6",
"BX c #8BB2C3",
"VX c #95B5C9",
"CX c #9DBBD2",
"ZX c #A3B9CA",
"AX c #A6BDD1",
"SX c #ABC3D4",
"DX c #ABC6D9",
"FX c #B7CBD4",
"GX c #B3CADB",
"HX c #B8CAD8",
"JX c #B3CEE2",
"KX c #B3CFE3",
"LX c #C4D4DD",
"PX c #C5D8E4",
"IX c #D4E4EE",
/* pixels */
"C.$XeXT.R ^ C.{.C.s./ / m.`.C.m.C.lX#X@X`.{.C.B V.V.=.<.8.<.!.{ !.<.<.<.V.`.!.B m.{.{.@X@XzX#X/ M.T.M.M./ B V.{.C.m.&.B.tXtXC.b.",
"V.{.F.M M b.m.m.m.b./ <.V.`.{.M.`.NXtX@XV.C.m.M =.<.z o.} 3 s 3 s 2 2 } } F &.=.M s.B.Q.tXNXlXM.`.@X`.V.b.&.C.C.m.m.B M <.@XC.B.",
"T.#XF.^ V.M.m.C.C.V.M.#X{.{.M.M.F.`.T.U M n q = d F & 7 y y t 2 5 y 3 5 : % s z q q l W T.`.`.=.M.{.{.#XV.V.C.{.C.m.V.&.B.#X@XT.",
"#X$X`.=.V.C.m.b.&.x x V.&.x f t x &.x q q t f s d 8 4 2.%.i F = t <.y s ..5 2 s x f t q f M &.M f f / &.&.x x &.m.C.`.=.F.#X$X`.",
"&.M x t t x &.M = + & i x f f $ 5 z t - % = d _.-X .3  .t.Z s 7 6 ..| a  .4 { 2.r.y * * , t d t = 0 f x z * + = R &.z t i M T E ",
"= & * * + 3 ^.8.x 5 5 <.x = & = J r.J < 5 : F kXkX%.* y F | +.^.8.+.| F { *  .r.jXF : < < J r.} = & & F <.: 5 x 9.^.3 % = & & : ",
"=.y 4 5 y : $.0X:.: = | <.f 2 * a -Xq.Z : : d ^.%.d F O.$.).zXIXFX,X).7.K Z Z { 7.d , , 5 7.jX .= : f <...= 2 &.0X%.: y 5 3 &.b.",
"XXn.U d R :.*.J W t & & &.x # # % Z | a % : 3 t i J *.5.W.cXLXIXIXHXzX'.5.-.T i 3 5 ; # 4 8.-X .# & F `.: $ f o.T &.:.T G ` |.C.",
"XX+X|.' B.6X9X0X'.C.b.^ T G , 4 | +.} $.S.@.x G l E >.W.eXKXPXcXFXIXZX0XP.Z.E l i i y F J %.1.6 * + 5 -.W ' U.'.0X0X@XD.U. XoXD.",
"oX X[.>.=.iXZXGXSXiX8XU.N.R k M ~.^.1X9X8XF.*.T l U @.,XLXPXkXJ +.bXPXHXlXG.E L l W ,.Q.'.W.q.q.U h R s.D.W.rXAXSXCX6Xd.v.]..Xd.",
"Y.Y.z.*.,.9XCXSXHXDXfXuX8X/ P ,.nXZXbXMXVX9XW._ M ;.,XHXIXAX7.$.+.q.ZXSXHXkX@.l l ,.Q.7XMXsXcXzXL.R :.{.yXuXMXGXSXCX8XC.j.z.].p.",
"j.Y.z.g.*.'.VXAXHXDXhXfXrXn.) '.LXPXDXHXHXMX8X*.U wXSXPXPXGXbXlX0XlXAXHXPXPX_.U l Z.9XMXDXAXLXFX>X_ C.rXhXhXDXHXSXvXQ.j.j.j.z.( ",
"h.Y.j.g.o.G.gXCXSXCXgXfXaXXX_ G.GXPXPXKXGXMX8X-.x ! ~.kXcXNXZXDXAXGXDXJXZXNXcXR S Z.rXVXKXHXPXPX>X' XXiXfXgXSXCXAXiXU.h.j.j.j.p.",
"u.h.j.g.@.D.9XVXVXVXgXaXgX@Xd.>.ZXPXGXKXJXMX8X-.l x x U ;.7.1XzXNXkX).).q.H J S Y W.fXCXKXJXPXZXG.' T.yXaXsXVXCXVX9XU.h.g.j.h.N ",
"B B g.g.@.D.8XVXVXBXvXgXyXW.>._ >XAXDXKXJXVX8XT.Y i j l i d | <.e.{ } Y M U l x -.7XMXJXKXHXPXZX>.n.XXiXgXgXBXVXVX8XU.z.g.m.u.c ",
"s.B i.j.N.:.,.>XiXMXMXsXiXD.R ! F.0XbXNXMXrXW.G.W y t l U o.U E Y G o.j u g u j >.@XiXDXJXZXbX'.>.A.A.iXiXMXBXvX7XZ.Y.].C.u.B m ",
"m.s.N d.].E U W D.'.Q.I.W._ m m m @.;.=.B.b.,.T z j &.b.M.$X$XQ.$XT.&.&./ u i z @.Z.`.iXzX'.Z.m m R ` P.(.'.'.T.E E }.}.a.B s.s.",
"C.{.s.f.}.E g g U U R T *.C.D.n.D.G.B.U B.N.:.B.b.B.$X$X@X=.s d J F.@X#XXXT.B.g j U b.^ E T g l l m M U E E M M g h ].OXg.s.T.b.",
"C.C./ s.{.'.'.'.'.#XW.k.U.XXXXB.@XtX8XD.{.XXT.@X$X`.5 3 y #     . 2 3 8.$X$X$XT.`.T.T.m.:.T.T.D.U.{.{.{.XX'.'.'.'.Q.5XOX/ ^ U.s.",
"dX4X.X.XdXfX,X'.(.`.G.A.U.B.m.m ' XXrX@XT.Q.} % & %                   # & = <.'.XXrX@XT.XXtXrXQ.b.{.XX$X@X0X0X0X0XrXfXdX.XoX5XU.",
"dXuXuX5X5XoXT w w q q q q w q q q q u %.+.3 .                               . . z @XT.`.@XQ.T.W M d.d.n.>.>.>.n.,.|.5X5X5X5XfXY.",
"+X+XoXoX5X|.n n r A r q q n v P r h 7.8.2 .                                     . 2 8 %.F.h r r n l v w q S S r k U.dX5X.XoX4XU.",
"[.[.[.[.4XoX) I r Y [ h n ( ` I m q.r.3 .                                     .     2 8 %.!.U l P I I r h 5.4.S I |.dX+X[.[.[.s.",
"C.[.|.}.4XXX] ) ) 4._ J.` ( ] L 7.8.3                                               . # 8 J -X~.) ] ( I S.] S.J.` |.rX+X|.}.[.s.",
"j.]. X X4XoX! ) ) d.] d.` ` _ 3.e.* .                                                   @ ; 2._.7.#.( I ] ` d.] ` R.uX+XoXOX].i.",
"v.z.[..X5XXXI ) L ) W.L P _ ! /.s                                                         . 2 2.~.] ) P P G.^ L ) |.uX5X X[.Y.d.",
"v.v.].[.5X3X>.) I d.qX` I ` ! r.o                                                           O s /.! ` I _ 9Xd.I ) R.fX4X Xv.v.h.",
"OX Xz.v.OXiX).L 5.S.XXZ.) I 7.a                                                               # 2./.) I n.3XA.W.I A.uX+Xz.v.[.f.",
".X}.|.[.oXyXq.m Z.Z.Q.6XS.l r.#                                                               o | ,XL S.8XW.>.Z.L x.dXOX}.|.|.d.",
"oX}.|.].+XuX8.l U A.9XW.,.;.s .                                                                 4 8.U ,.W.9XD.W T XXfX+X].}.|.d.",
"XXoX.Xj. X+X_.@.l k m h U 7.2                                                                   o %.9.G R m k x $.iXdX Xj.XXoXn.",
"8XoX X]. X8XkX%.u #.A q O.|                                                                     . F q.d < D -.u J 9XdX Xv..XoXD.",
"oXoX[.]..XoX,X%.G lX3.< %...                                                                      # _.$.1 3.vXG < A.dX X].[.+Xg.",
"].[.].c.[.U.^.<.Z.sXQ.G ;...                                                                      O t.3.] Q.gXZ.u d.+Xv.c.v.[.( ",
"C.z.j.c.j.s.t.F.qXyX9XQ.9...                                                                      o t.8.yX9XtXqXh ( c.c.h.j.U.p.",
"z.z.j.j.j.d.e.9.W.iXXXL =...                                                                      O ^.<.Q.iXXXZ.l a.c.c.j.z.j.s.",
"h.h.z.h.h.( ^.<.~ iXN.r ;...                                                                      O t.*.^ iXN.r P z.h.h.h.j.j.s.",
"z.v.v.h.g.s.e.;.P iXN.e =...                                                                      O ^.*.~ iXd.q P ].z.g.j.].Y.p.",
"z.j.].].Y.k.t.;.P iXN.k e.s                                                                       O ^.=.R iXd.r P }.z.z.j.].].a.",
"p.i.a..XuXoXF.o.v {.U.m jX2                                                                       . Z e.M XXT.k )  X}.v.Y.Y.Y.~ ",
"p.u.i.Y.uXfXA.x k U.U.W ^.#                                                                         & _.E U.N.k b.4X.X}.l.l.f.~ ",
"p.p.~ U.aXhXK.x k U.U.E !.+                                                                         2 _.R U.U.k ' 4X.X[.Y.l.s.N ",
"U.Y.~ Y.hXgXI.F q ^ _ g ^.O                                                                         & _.g ^ 8Xl Z.5X.X}.].f.p.N ",
"4X4Xf.f.4XuXG.F < L Y i ^.O                                                                         & -Xi Y 6Xj Z.uXOX.Xv.a.u.n ",
"4X4X Xg.l.v._ H < , q i ^.@                                                                         & -Xp < w < :. X Xv.a.u.u.M ",
"Q.}.3Xg.d.l.E } u u i z _.@ X X o o @ @ o o X o o o @ @ O o X . X X o o X X X X o @ o o @ o X X X X 2 -XA u U j :.j.a.u.y.u.a.~ ",
"3X}.oXd.a.d.>.7.W *XZ.! _.> 1 > > > 6 > ; ; 4 6 7 Z s s 8 ; - 2 7 7 7 8 Z a 8 7 6 1 7 7 > - - > > 6 a ,X! Z.eX*.' a.u.y.b u.u.n ",
" Xj.[.].p.p.^ ^.*.I.J.! _.p p C C 6 6 6 6 p Z H K  . . .Z a Z  ....... .K Z Z H H C 7 7 6 6 6 C C A Z 8.Y G.Q.W Q.B B b b B p.n ",
"f.p.c. Xf.B h O.Z.>X7X4.;Xy C Q K H H H K 1.1.O. .K K J H $.2.2.r.t.r.1.K H H +.1.K K H H Q K H H A C ).>.7X>X5.*.N c v N B ~ e ",
"f.b f. Xj.v f H D.W.Q.>.^.C Q 1.Q 1.4.4.w.%Xw.1.J T $.7.t.).=X/.~.q.3.#.$.1.1.w.w.0.0.1.4.0.0.4.Y A a _.>.*XW.G.Y c n ~ ~ N c e ",
"g.b i. XC.0 t <._ 8XG.Y ^.A 4.4.%X=XI.%X%X%Xt.=X/.=X;X:X,X;X!.9.7.-.#.#.$.0.K.L.w.:X:X%X%XI.K.K.0.4.J _.Y S.7X! *.e v N B ( ( k ",
"l.v v g.Y.e q r.Y G.[ S ^.Q %X*XeXvXeX:X=Xw.%XxX:X=X:XkXkXxX;X9.0./.~.0.=X;X<XwXeXnXnXeX>XK.4.P.*XS.K 8.l ] W.L *.e e c B k.|._ ",
"i.c c a.}.N q 2.Y Q.P.L q.K *X%X>X>X:XI.S.G.:XeX:X,XeXcXxXxX'.q.9.0./.;XkX<X1XwX1X1X1X:XK.5.6.%X%XP.K r.S W.Q.U K 0 0 e c f.XX` ",
"b c c b v.k.u 8.l >.Q.U e.Q J.4.-.! _ 4.0.%X1X:X<X:X'.).;X(.P.q.7.q.^.;X(.(.=X(.w.0.#.3.4.4.I.*XJ.%X .1.S Q.n.h K $ $ 0 ~ ]..Xk.",
"a.b v b l.z.h $.Y 6XZ.S =XJ #.] 4.P.I.K.P.>XeX:X=X:X(.L.F./.).,X;X<X1XxXxX:XL.0.4.K.>X=Xw.P.%X>Xw.w.K 8.A Z.6XW Q $ $ n }.}.Y.d.",
"k.b c v a.x.h } U 6X6XW q.A ! Q 3.I.:X>XP.=XeX1X:X1XkXkX,X1XwXwX0XkXjX1XkX<XL.3.3.w.:X1X%Xw.%X>XP.P.K 1.Y 6X6XU H 0 0 a.v.x.}.] ",
"k.b c c v p.h  .h ] 6X_ 1.A [ 4.I.:XpXeX0.1.:X1XeXxXbX1X=XkXmX-X).~.q.q.0.0.L.L.L.1XeXxX>X4.3.>X%X%XO.2.! 7X[ r W c c f.R.}.2X[ ",
"k.N c 0 c ~ A  .w _ G.A 7.4.K.%X*X1XeX:X4.3.=X1X1X1XkX,Xw.-XnXxXkX,X;X=X;X:X;X<X<XeXpXeX%X#.4.%X%X%X1.} A K._ w @.N ~ x.&X&X&Xk.",
"k.p.v e c ( Y H u ! G.h J w.P.w.4.K.K.0.-.;.(.;XI.=X=X(.w.-XxXnXmXnXbXxXxX1X;X:X(.L.I.P.6.@.-.%X4.4.J y r J.Q w @.d.k.H.&X&Xk.I ",
"k.a.~ v P x.Q C u u A u Y Q [ 4.5.Q #.3.3.0.;X(.0.L./.=X=XxXcXxXzXbXnXnXkX;XL.L.K.3.#.;.4.6.6.I.4.[ H d p j w C ! k.k.x.x.x.k.k.",
"x.x.k.( k.x.L - - - - - 6 Q Y w.*X%XK.%X=X1XeXw.3.~.<XkXnXmXFXxXkXxXnXnXkXw.$.4.>X<X%XI.%X%X:X%XQ ! C ; - > - - C H.H.x.x.x.x.*X",
"x.H.H.H.H.H.A X X X X X > x.J.&XqX2X2X>XqXyXqX2X>XqXyXaXgXBXBXBXvXaXvXaXqX>X>X*XqXyXqX*X*X2XqX*XJ.J.C o o @ X X < x.H.x.x.J.=XbX",
"H.H.H.E.H.&X&X4.[ H.A.A.J.&X&X2X2X2XqXqXyXyXyXpXpXyXaXaXgXBXBXgXgXaXaXyXyXqXyXqXqXqXqXqXqX2XqX2X2X*XE.A.[ [ J.[ x.&XE.E.x.X.V _ ",
"&X&XH.E.&XH.&X&X&X&X2X&X2X2X2X2XqXqXqXyXqXpXpXpXpXaXsXaXaXaXhXaXaXaXaXyXpXyXqXqXqXqXqXqXqX2X2X2X2X*X&X*X&X&X&XH.&X&XE.E.E.9 g v "
};
