/* XPM */
static char *f4759285ec154d1381469a5ee4f32b1eHmNdR2QWageQBKJf[] = {
/* columns rows colors chars-per-pixel */
"64 64 160 2 ",
"   c None",
".  c #3F7100",
"X  c #406F01",
"o  c #457501",
"O  c #487601",
"+  c #467901",
"@  c #497A02",
"#  c #4C7901",
"$  c #4C7A01",
"%  c #4C7B01",
"&  c #4C7903",
"*  c #4C7A02",
"=  c #4C7B02",
"-  c #4C7A03",
";  c #4D7A03",
":  c #4C7B03",
">  c #4E7B03",
",  c #487C01",
"<  c #497C01",
"1  c #487D01",
"2  c #4A7C01",
"3  c #4B7C01",
"4  c #4A7D01",
"5  c #4B7D01",
"6  c #497C02",
"7  c #487D02",
"8  c #497D02",
"9  c #497D03",
"0  c #4A7C02",
"q  c #4B7C02",
"w  c #4A7D02",
"e  c #4B7D02",
"r  c #4A7C03",
"t  c #4B7C03",
"y  c #4A7D03",
"u  c #4B7D03",
"i  c #4A7E02",
"p  c #4B7E02",
"a  c #4B7E03",
"s  c #4B7F03",
"d  c #4C7D01",
"f  c #4C7E01",
"g  c #4D7E01",
"h  c #4C7C02",
"j  c #4D7C02",
"k  c #4C7D02",
"l  c #4D7D02",
"z  c #4C7C03",
"x  c #4D7C03",
"c  c #4C7D03",
"v  c #4D7D03",
"b  c #4E7D02",
"n  c #4C7E02",
"m  c #4C7F02",
"M  c #4C7E03",
"N  c #4D7E03",
"B  c #4C7F03",
"V  c #4D7F03",
"C  c #4E7F02",
"Z  c #4E7E03",
"A  c #4E7F03",
"S  c #4B7904",
"D  c #497A04",
"F  c #497B04",
"G  c #497B05",
"H  c #4A7A04",
"J  c #4A7B04",
"K  c #4B7B04",
"L  c #4B7B05",
"P  c #4D7A04",
"I  c #487C04",
"U  c #497C04",
"Y  c #497D04",
"T  c #4A7C04",
"R  c #4B7C04",
"E  c #4A7D04",
"W  c #4B7D04",
"Q  c #4A7C05",
"!  c #4B7E04",
"~  c #4B7F04",
"^  c #4B7F05",
"/  c #4B7D06",
"(  c #4C7C04",
")  c #4C7D04",
"_  c #4D7D04",
"`  c #4D7C05",
"'  c #4C7E04",
"]  c #4D7E04",
"[  c #4C7F04",
"{  c #4D7F04",
"}  c #4C7F05",
"|  c #4E7E04",
" . c #4E7F04",
".. c #4E7E05",
"X. c #4E7F05",
"o. c #4C7C06",
"O. c #4C7D06",
"+. c #4D7D06",
"@. c #4D7E07",
"#. c #4E7E06",
"$. c #4E7F06",
"%. c #4F7F06",
"&. c #4E7F07",
"*. c #4B7C02",
"=. c #4D7F09",
"-. c #507D03",
";. c #517F03",
":. c #507F04",
">. c #507F05",
",. c #507E06",
"<. c #507F05",
"1. c #4D8103",
"2. c #4E8102",
"3. c #4E8003",
"4. c #4F8003",
"5. c #4E8103",
"6. c #4D8004",
"7. c #4D8104",
"8. c #4D8105",
"9. c #4F8004",
"0. c #4E8104",
"q. c #4F8005",
"w. c #4E8105",
"e. c #4E8204",
"r. c #4F8204",
"t. c #4F8304",
"y. c #4D8006",
"u. c #4F8106",
"i. c #4E8107",
"p. c #4F8107",
"a. c #4D8206",
"s. c #4E8206",
"d. c #4F8206",
"f. c #4F8407",
"g. c #4E8105",
"h. c #4F8408",
"j. c #4E8208",
"k. c #508303",
"l. c #508104",
"z. c #518104",
"x. c #508005",
"c. c #518105",
"v. c #538005",
"b. c #508107",
"n. c #508207",
"m. c #508307",
"M. c #528306",
"N. c #528307",
"B. c #518405",
"V. c #528405",
"C. c #518407",
"Z. c #538406",
"A. c #528407",
"S. c #518206",
"D. c #518108",
"F. c #518308",
"G. c #508408",
"H. c #528709",
"J. c #52840B",
"K. c #538509",
/* pixels */
"                                                                                                                                ",
"  ] ] $ $ $ $ $ $ O O o o $ 0 o o ] ] g g $ $ $ $ $ D 0 0 D D O O $ $ $ $ $ $ D D ] ] w.w.] ] g g $ $ 0 0 0 0 g 0 D D g g $ $ D ",
"  ] ] $ $ $ $ $ D O O o o 0 0 o o ] ] g g $ $ $ $ $ $ 0 0 D D O O $ $ $ $ $ $ D D ] ] w.w.] ] 0 g $ $ 0 0 0 0 g g D D g g $ $ D ",
"  - - 0 0 g g $ D - - $ $ O O O O f.f.$ $ 0 0 g g w.w.g g D D Y Y w.w.k.k.$ $ $ $ C.C.D D ] ] D D o o N.N.] ] ] ] ;.;.$ $ $ - o ",
"  - - 0 0 g g D $ - - $ $ O O O O f.f.$ $ 0 0 g g w.w.g g D D Y Y w.w.k.k.$ D $ $ C.C.D D ] ] D D o o N.N.] ] ] ] ;.;.$ $ - - o ",
"  0 0 $ D C.C.. X $ $ o o 0 0 G.G.O O D.D.D D $ $ $ $ 0 0 $ $ 0 D w.N.o o ] ] 0 0 0 0 $ $ $ $ ] ] ] ] o o $ $ $ $ 0 0 D D 3.3.0 ",
"  0 0 $ $ C.C.. X $ $ o o 0 0 G.G.O O D.D.D D $ $ $ $ 0 0 $ $ 0 1 w.N.o o ] ] 0 0 0 0 $ $ $ $ ] ] ] ] o o $ $ $ $ 0 0 D D 3.3.0 ",
"  O O o o D D 0 g N.N.g g ] ] w.w.0 0 $ $ ,.,.,.,.Y Y $ $ $ $ Y Y o o O O o o w.w.] ] D D $ $ $ $ g g $ $ g g o o $ $ o o N.N.] ",
"  O O o o D D g g N.N.g g ] ] w.w.0 0 $ $ ,.,.,.,.Y Y $ $ $ $ Y Y o o O O o o w.w.] ] D D $ $ $ $ g g $ $ g g o o $ $ o o N.N.] ",
"  ] ] o o w.w.$ $ $ $ 0 0 0 0 $ $ o o g g Y Y $ $ - - w.w.0 0 o o 3.3.o o $ $ w.w.N.N.o o $ $ N.N.D D 0 0 g g g g $ $ D D $ $ o ",
"  ] ] o o w.w.$ D $ $ 0 0 0 0 $ $ o o g g Y Y $ $ - - w.w.0 0 o o 3.3.o o $ $ w.w.N.N.o o $ $ N.w.D D 0 0 g g g g $ $ D D $ $ o ",
"  $ $ g g g 0 G.G.0 0 $ $ g g ] ] o o ] ] w.w.g g 0 0 C.C.0 0 g g g g g g o o $ $ $ $ - - D D g g 0 0 0 0 0 0 $ $ $ $ $ $ g g w.",
"  $ $ g g 0 0 G.G.g 0 $ $ g g ] ] o o ] ] w.w.g g 0 0 C.C.0 0 g g g g g g o o $ $ $ $ - - D D g g 0 0 0 0 0 0 $ $ $ $ D D g g w.",
"  g g $ $ - $ D D D D o o $ $ o o $ $ $ $ - - O O g g ] ] $ $ 0 0 3.3.g g 0 0 o o 0 0 O O 0 0 - - $ $ 0 0 g g o o ] ] o o o o $ ",
"  g g $ $ $ $ D D D D o o $ $ o o $ $ $ $ - - O O g g ] ] $ $ 0 0 3.3.g g 0 0 o o 0 0 O O 0 0 - - $ $ 0 0 g g o o ] ] o o o o $ ",
"  0 0 D D 0 0 o o $ $ o o 0 0 g g 0 0 o o 0 0 $ $ 0 0 $ $ ] ] w.w.0 0 ] ] $ $ $ $ o o $ $ w.w.0 g $ $ w.w.$ - g 0 D D o o o o 0 ",
"  0 $ D D g g o o $ $ o o g g g g 0 0 o o 0 0 $ $ 0 0 $ $ ] ] w.w.0 0 ] ] $ $ $ $ o o $ $ w.w.0 g $ $ w.w.- $ g 0 D D o o o o 0 ",
"  $ $ D D g g o o 0 0 N.N.0 0 0 g D D $ $ $ $ w.w.Y ] ] ] ] ] ] ] g g - - ] ] $ $ $ $ D D ] ] w.w.D D 0 0 $ $ $ $ N.N.D D $ $ o ",
"  $ $ D D g 0 o o 0 0 N.N.0 0 0 - D D $ $ $ $ w.w.] ] ] ] ] ] ] ] g g - - ] ] $ $ $ $ D D ] ] w.w.D D 0 0 $ $ $ $ N.N.D D - $ o ",
"  D $ g g 0 0 w.w.] ] ] ] w.w.0 - 0 0 $ $ g g g 0 Y Y $ $ 0 0 @.] D D N.N.$ $ Y Y o o g g $ $ D D $ $ 0 0 ] ] O O ] ] g g $ $ C.",
"  D D 0 0 0 0 w.w.] ] ] ] w.w.$ g 0 1 $ O 0 g g g Y Y $ $ 0 0 ] ] D D N.N.$ D Y Y o o g g $ $ D D D D 0 0 ] ] O O ] ] 0 g $ $ C.",
"  Y Y D D $ $ $ $ ] ] $ $ 0 0 o D $ $ Y D o $ o o 3.3.N.N.0 0 w.w.o o $ $ ] ] $ $ o o w.w.$ $ $ $ o o $ $ $ $ 0 0 Y Y D D $ $ g ",
"  Y Y D D $ - $ $ ] ] $ $ 0 0 D D $ $ Y D D D o o g 3.N.N.0 0 w.w.o o $ $ ] ] $ $ o o w.w.$ $ $ $ o o $ $ $ $ 0 0 Y Y D D $ $ g ",
"  w.w.$ D N.N.] ] $ $ o o $ $ o o D D $ $ 0 0 $ $ o o $ $ w.w.] ] ] ] ;.;.Y Y D D w.w.$ $ o o N.N.D G g g 0 0 Y Y D D Y Y $ $ Y ",
"  w.w.$ $ N.N.] ] $ $ o o D $ o o $ $ $ $ 0 0 $ $ o o $ $ w.w.] ] Y Y ;.;.Y Y D D w.w.$ $ o o N.N.G G g g 0 0 Y Y D D Y Y $ $ Y ",
"  O O g g w.w.o o $ $ g g o o G.G.Y Y g g ] ] o o $ $ D D g g $ $ D D D D $ $ ] ] o o $ $ . . w.w.$ $ o o o o $ $ g g 0 0 ] ] w.",
"  O O g g w.w.o o $ $ g g o o G.G.Y Y g g ] ] o o $ $ D D g g $ $ D D D D $ $ ] ] o o $ $ . . w.w.$ $ o o o o $ $ g 0 0 0 ] ] w.",
"  D D P P o o Y Y D D 0 0 0 0 I Y g g ] ] w.w.] ] $ $ 3.3.o o $ $ ] ] $ $ . . g 0 o o O O 0 0 g g $ $ g g 0 0 ] Y g g g g g g 3.",
"  D D P P o o Y Y $ $ 0 g 0 0 Y Y g g ] ] w.w.] ] $ $ 3.3.o o $ $ ] ] $ $ . . g 0 o o o O 0 0 g 0 $ $ 0 g 0 0 ] Y 0 0 g g g g 3.",
"  o o $ $ D D N.N.$ $ Y Y $ $ D.D.w.w.g g - - Y Y ] ] D D D D $ $ 0 0 ] ] Y Y $ D D D g g 0 g $ $ I I o o $ $ o . $ $ o o 0 0 O ",
"  o o $ $ D D N.w.$ $ Y Y $ $ D.D.w.] g g - $ Y Y Y ] D D D D $ $ 0 0 ] ] Y ] $ $ D D g g g g $ $ I I o o $ $ o o $ $ o o 0 0 O ",
"  C.C.Y Y ] ] $ $ $ $ w.w.h.h.D D 0 Y g g D D D D o o $ $ g g 0 0 - - ] ] 0 0 ] ] $ $ 0 0 $ $ o o 0 0 G G $ $ $ $ - - D D ] ] $ ",
"  C.C.Y Y ] ] $ $ D D w.w.h.h.D D Y Y g g D D D D o o $ $ g g 0 0 - - ] ] 0 0 ] ] $ $ 0 0 $ $ o o 0 0 G G $ $ $ $ - - D D ] ] $ ",
"  3.3.$ $ $ $ $ $ w.w.D D ] ] g g 0 Y ] ] ] ] g g ] ] g g $ $ $ $ o o w.w.D D 0 0 ] ] P P - - - - $ $ $ $ - $ o o ,.,.g g g g D ",
"  3.3.$ $ $ $ $ $ w.w.$ $ ] ] g g Y 0 ] ] ] ] g g ] ] g g $ D $ $ o o w.w.D D 0 0 ] ] P P - - - - $ $ $ $ - - o o ,.,.g g ] g D ",
"  w.w.$ $ $ $ Y Y ;.;.o o o o ] ] o o O O $ $ $ $ $ $ Y Y ] ] $ $ w.w.0 g 0 0 $ $ $ $ w.w.$ $ ] ] $ $ D $ g g g g ] ] - - 0 0 $ ",
"  w.w.$ $ $ $ Y Y ;.;.o o o o ] ] o o O O $ D $ $ D $ Y ] ] ] $ $ w.w.g g 0 0 $ $ $ $ w.w.$ $ ] ] $ $ D $ g g g g ] ] - - 0 0 $ ",
"  0 0 0 0 o o g g 0 0 G.G.$ $ D D g g ] @.Y Y ] ] g g $ $ g g $ $ ] ] $ $ - - ,.,.0 0 $ $ $ $ 0 0 O O $ $ ] ] w.w.w.w.g g g g o ",
"  0 0 0 0 o o g g 0 0 G.G.$ $ D D g g ] @.Y Y ] ] ] ] D $ 0 0 $ $ ] ] $ $ P P ] ,.0 0 D D $ $ 0 0 O O $ $ ] ] w.w.w.w.g g g g o ",
"  $ $ ] Y Y Y o o D D w.w.o o $ $ 0 0 ,.,.g ] o o ,.,.$ $ $ $ o o g g o O D.D.g g N.w.0 0 Y Y $ $ 0 0 N.N.$ D 0 0 3.3.] ] Y Y $ ",
"  $ $ ] ] Y Y o o D D w.w.o o $ $ 0 0 ,.,.g g o o ] ] D D $ $ o o g g o o N.N.g g N.N.0 0 Y Y $ $ 1 1 w.w.D $ 0 0 3.3.] ] Y Y $ ",
"  0 g $ $ 0 0 $ $ g g 0 0 $ $ o o g g 0 0 g g g g o o N.N.N.N.g g 0 0 D D N.N.g 0 w.w.$ $ D D 0 0 D D $ $ @.@.N.N.g g ] ] o o g ",
"  0 0 D $ g g $ $ g g 0 0 $ $ o o g g 0 0 g g g g o o N.N.N.N.g g 0 0 D D N.N.g 0 w.w.$ $ D D 0 0 $ $ $ $ @.@.N.N.g g ] ] o o ] ",
"  N.N.$ $ g g D D 0 0 $ D $ $ $ $ O O o o g g 0 0 o o 0 0 $ $ $ $ K.K.0 0 ] g ] ] D D 0 0 D D D D $ $ w.w.] ] G D w.w.0 0 g g Y ",
"  N.N.$ $ g g D D 0 0 $ D D D $ $ O o o o 0 g 0 0 o o 0 0 $ $ $ $ K.K.0 0 ] ] ] Y D D 1 0 D D D D $ $ w.w.,.,.D D w.w.0 1 g g Y ",
"  ] ] $ $ ] ] o o ] ] $ $ O O w.N.] Y g g 0 0 $ $ $ $ w.w.0 0 ] ] O O 0 0 D D 0 0 $ $ g g w.3.o o ] ] D D D D - - - - g g $ $ 0 ",
"  ] ] $ $ ] Y o o ] ] $ $ O O w.N.] Y g g 0 0 $ $ $ $ w.w.0 0 ] ] O O 0 0 D D 0 0 $ $ g g w.3.o o ] ] D D D D - - - - g g $ $ 0 ",
"  3.3.] ] 0 0 ] ] 3.3.O O N.N.$ $ C.f.D D $ $ D $ g g w.w.w.w.N.N.$ $ N.N.D D g g o D $ $ g g o o N.N.N.N.g g $ $ $ $ $ $ ] ] $ ",
"  6.3.] ] 0 0 ] ] 3.3.o o N.N.$ $ f.f.D D $ $ D D 0 0 w.w.w.w.N.N.$ $ N.N.D D g g D D $ $ g g o o N.N.w.N.g g $ $ $ $ $ $ ] ] $ ",
"  Y Y 0 0 $ $ . . $ $ w.w.0 0 D D $ $ ] ] N.N.w.w.w.w.g g ] ] N.N.0 0 C.C.0 0 $ $ $ $ $ $ $ $ 0 0 1 1 0 0 $ $ D D Y ] Y Y Y Y $ ",
"  Y Y 0 0 $ $ . . $ $ w.w.0 0 D D $ $ g ] N.N.w.w.w.w.g g ] ] N.N.0 0 C.C.0 0 $ $ $ $ $ $ $ $ 0 0 1 1 0 0 $ $ D D Y Y Y Y Y Y $ ",
"  $ $ $ $ o o 0 0 0 0 o o ] ] $ $ $ $ w.w.D D $ D D D D D o o $ $ N.N.Z.Z.0 0 0 0 o o o o w.w.0 0 $ $ g g $ $ w.w.$ $ $ $ $ D $ ",
"  $ $ $ $ o . 0 0 0 0 o o ] ] $ $ $ $ w.w.D D $ D D D D D o o $ $ N.N.Z.Z.0 0 0 0 o o o o N.N.0 0 $ $ g g $ $ w.w.$ $ $ $ $ $ $ ",
"  $ $ o o ] ] $ $ N.N.o o g g $ $ $ $ w.w.D D $ $ ] ] 0 0 D D D D $ $ 0 0 g g 0 0 o o w.w.o o 0 0 0 0 j.j.o o $ - $ $ o o g g g ",
"  $ $ o o ] ] $ $ N.N.o o g g $ $ $ $ w.w.$ D $ $ g ] 0 0 D D D D $ $ 0 0 g g 0 0 o o w.w.o o 0 0 0 0 j.j.o o - $ $ $ o o g g g ",
"  D D - $ 0 0 y.y.$ $ g g w.w.Y Y o o o o ] g $ $ D D D D ] ] ] ] o o ] ] $ $ g g 0 0 O O D D D D 0 0 $ $ 0 0 ] ] 0 g o o g g g ",
"  D D $ $ 0 0 y.y.$ $ 0 g w.w.Y Y o o o o ] ] $ $ $ $ D $ Y ] ] ] o o ] ] $ $ g g 0 0 O O D D D D 0 0 $ $ 0 0 ] ] g g o o g g g ",
"  o o $ $ o o o o D D j.j.o o $ $ D D $ $ $ $ g g $ $ ] ] g g o o $ D g g N.N.o o 3.3.K.K.Y Y 0 0 D D ] ] 0 0 $ $ N.N.] ] $ $ O ",
"  o o $ $ o o o o D D j.j.o o $ $ D D $ $ $ $ g g $ $ ] ] g g o o $ D g g N.N.o o 3.3.K.K.Y Y 0 0 D D ] ] 0 0 $ $ N.N.] ] $ $ o ",
"  g g O o o o $ $ o o $ $ C.C.g g $ $ ] ,.0 0 N.N.D D $ D w.w.- - w.w.] ] O O D D D D g g N.N.0 0 0 0 D D ] ] w.w.N.N.O O ] ] Y ",
"  g g O O o o $ $ o o $ $ C.C.g g $ $ ,.,.0 0 N.N.D D $ $ w.w.- - N.N.] ] O O D D D D 0 g N.N.0 0 0 0 D D ] ] w.w.N.N.O O ] ] Y ",
"  0 0 o o $ $ D D D o D 0 g g w.w.D O o o $ $ o o 0 g D D $ D D D $ $ Y Y O O o o g g g g N.N.o o o o 0 0 D D 0 0 Y Y $ $ D D 0 ",
"  0 0 o o $ $ D D D D D 0 g g w.w.D D o o $ $ o o 0 0 D D $ $ D D $ $ Y Y O O o o g g g g N.N.o o o o 0 0 D D 0 0 Y Y $ $ D D 0 ",
"  Y ] D D g g ] Y o o o o ] ] $ $ g g ] ] 0 0 $ D $ $ Y ] $ D 0 0 Y Y $ $ o o 3.3.o o D D 0 0 N.N.$ $ $ $ ] ] $ $ o o w.w.o o 0 "
};
